<?xml version="1.0" encoding="UTF-8"?>
<!DOCTYPE svg PUBLIC "-//W3C//DTD SVG 1.1//EN" "http://www.w3.org/Graphics/SVG/1.1/DTD/svg11.dtd">
<!-- Creator: CorelDRAW X7 -->
<svg xmlns="http://www.w3.org/2000/svg" xml:space="preserve" width="53.663mm" height="16.7978mm" version="1.1" style="shape-rendering:geometricPrecision; text-rendering:geometricPrecision; image-rendering:optimizeQuality; fill-rule:evenodd; clip-rule:evenodd"
viewBox="0 0 5366 1680"
 xmlns:xlink="http://www.w3.org/1999/xlink">
 <defs>
  <style type="text/css">
   <![CDATA[
    .fil5 {fill:#FEFEFE}
    .fil9 {fill:#332C2B}
    .fil8 {fill:#FDD100}
    .fil0 {fill:#EBBD67}
    .fil3 {fill:#F39910}
    .fil4 {fill:white}
    .fil2 {fill:black}
    .fil7 {fill:white}
    .fil10 {fill:#FDD100;fill-rule:nonzero}
    .fil6 {fill:white;fill-rule:nonzero}
    .fil1 {fill:white;fill-rule:nonzero}
   ]]>
  </style>
 </defs>
 <g id="Layer_x0020_1">
  <metadata id="CorelCorpID_0Corel-Layer"/>
  <g id="_2341439116608">
   <g>
    <path class="fil0" d="M3333 1298l51 -136c0,-1 1,-2 2,-2l21 0c1,0 2,1 3,2l59 136c0,1 0,2 0,3 -1,1 -2,2 -3,2l-21 0c-1,0 -2,-1 -3,-2l-16 -40 -55 1 -14 40c0,1 -1,2 -2,2l-20 1c0,0 0,0 0,0 -1,0 -2,1 -2,1l-24 0c-1,0 -2,0 -2,-1l-20 -28c-4,-6 -9,-12 -13,-18 -3,-3 -6,-6 -9,-8 -3,-2 -5,-3 -8,-3 -3,-1 -7,-1 -10,-1l-18 1 2 58c0,1 0,2 -1,2 -1,1 -1,1 -2,1l-19 1c-1,0 -3,-1 -3,-3l-5 -138c0,0 1,-1 1,-2 1,0 1,-1 2,-1l62 -2c10,0 21,0 30,3 7,3 13,7 18,14 4,7 6,14 7,22 0,10 -3,19 -10,27 -6,7 -14,11 -23,13 2,1 4,2 5,3 6,5 12,12 16,18l24 34zm-1286 26l-43 9c-1,0 -3,-1 -3,-3l-3 -15c-1,-1 -1,-2 0,-3 0,0 1,-1 2,-1l109 -22c1,-1 3,0 3,2l3 16c1,1 0,1 0,2 0,1 -1,1 -2,1l-42 9 25 116c0,1 0,1 -1,2 0,1 -1,1 -2,1l-18 4c-2,0 -3,-1 -3,-2l-25 -116zm86 35c-4,-20 -3,-40 9,-58 11,-16 26,-25 46,-29 12,-2 25,-1 37,3 12,4 22,12 30,22 8,10 13,23 15,36 3,13 3,26 -1,39 -4,13 -11,23 -21,31 -9,8 -21,13 -33,15 -13,2 -26,1 -38,-3 -12,-5 -22,-12 -29,-22 -8,-10 -13,-21 -15,-34zm239 -115l18 -3c2,0 3,1 4,3l13 78c1,11 3,23 0,34 -2,10 -7,18 -14,24 -9,8 -21,12 -33,14 -11,1 -23,2 -34,-2 -10,-3 -17,-9 -23,-18 -6,-9 -9,-22 -11,-34l-13 -78c0,-1 0,-2 1,-2 0,-1 1,-1 2,-2l18 -3c2,0 3,1 3,3l13 78c2,8 4,18 8,25 2,4 7,8 12,10 6,2 12,2 19,1 9,-2 20,-5 25,-12 6,-9 4,-25 2,-34l-13 -79c0,0 0,-1 1,-2 0,0 1,-1 2,-1zm144 59c2,0 3,1 5,2 7,5 13,11 18,17l29 34c1,0 1,2 1,3 0,1 -1,1 -2,1l-23 4c-1,0 -2,-1 -3,-1l-22 -26c-5,-6 -11,-12 -16,-17 -3,-3 -6,-6 -10,-7 -2,-1 -5,-2 -8,-2 -3,-1 -7,0 -10,0l-18 3 8 57c1,1 0,2 0,3 -1,0 -1,1 -2,1l-19 2c-1,1 -3,-1 -3,-2l-19 -136c-1,-1 0,-2 0,-3 1,0 1,-1 2,-1l62 -8c9,-2 20,-3 30,0 7,1 13,5 18,11 6,7 9,14 10,22 1,10 -1,19 -7,28 -5,7 -13,11 -21,15zm182 2l-54 6 -10 41c0,1 -1,2 -3,2l-19 2c-1,1 -2,0 -3,-1 0,0 -1,-1 0,-2l37 -143c1,-1 2,-2 3,-2l20 -2c1,0 3,0 3,1l73 131c0,0 0,1 0,2 -1,1 -2,2 -3,2l-21 2c-1,0 -2,0 -3,-1l-20 -38zm143 -16l-9 -97c0,-1 0,-2 0,-2 1,-1 2,-1 2,-2l18 -1c2,0 3,1 3,3l13 136c0,1 0,2 0,3 -1,0 -2,1 -2,1l-19 1c-1,1 -2,0 -3,-1l-77 -93 9 98c0,1 0,1 -1,2 0,1 -1,1 -2,1l-17 2c-2,0 -4,-1 -4,-3l-13 -137c0,-1 1,-1 1,-2 1,-1 1,-1 2,-1l19 -2c1,0 2,0 3,1l77 93zm53 35l-10 -137c0,-1 0,-2 0,-3 1,0 2,-1 3,-1l48 -3c8,-1 17,-1 25,0 9,1 16,4 23,9 8,6 15,14 19,23 5,11 8,22 8,34 1,9 1,19 -1,29 -2,7 -5,15 -9,21 -3,6 -7,10 -12,14 -5,4 -11,7 -17,9 -8,2 -16,3 -23,4l-51 4c-2,0 -3,-2 -3,-3zm222 -131l-43 2c-2,0 -3,-2 -3,-3l-1 -16c0,-1 0,-2 1,-2 0,-1 1,-1 2,-1l111 -6c1,0 3,2 3,3l1 16c0,1 0,2 -1,3 -1,0 -1,0 -2,1l-43 2 5 118c0,1 0,1 0,2 -1,0 -2,1 -2,1l-19 1c-2,0 -3,-1 -3,-3l-6 -118zm400 81c1,-4 3,-9 5,-13l37 -100c1,-1 2,-2 3,-2l19 0c1,0 2,0 2,1 1,1 1,2 1,3l-55 137c0,2 -1,2 -2,2l-20 0c-1,0 -2,0 -3,-1l-54 -138c0,-1 0,-2 0,-3 1,0 2,-1 3,-1l20 0c1,0 2,1 3,2l36 100c2,4 3,9 5,13zm105 -92l-1 36 75 1c1,0 3,2 3,3l-1 16c0,2 -1,3 -3,3l-74 -1 -1 41 83 1c2,0 3,2 3,3l0 16c0,2 -2,3 -3,3l-105 -1c-1,0 -3,-2 -3,-3l3 -138c0,-1 1,-3 3,-3l101 2c1,0 3,1 3,3l-1 16c0,2 -1,3 -3,3l-79 -1zm128 101l66 2c1,0 1,1 2,1 0,1 1,1 1,2l-1 16c0,2 -1,3 -3,3l-87 -2c-1,0 -2,0 -2,-1 -1,-1 -1,-1 -1,-2l4 -138c0,-1 1,-3 3,-2l18 0c1,0 2,0 2,1 1,1 1,1 1,2l-3 118zm202 -12l-55 -3 -16 39c-1,2 -2,2 -3,2l-20 -1c-1,0 -2,0 -2,-1 -1,-1 -1,-2 0,-3l60 -135c0,-1 2,-2 3,-2l20 1c1,0 2,1 3,2l50 140c1,1 1,2 0,3 -1,1 -2,1 -3,1l-21 -1c-1,0 -2,0 -2,-2l-14 -40zm49 41l9 -137c1,-2 2,-3 4,-3l48 3c8,1 17,1 25,4 8,2 15,6 21,12 8,7 13,15 16,25 4,11 4,23 4,34 -1,10 -3,20 -6,29 -3,7 -6,14 -11,20 -5,5 -9,9 -15,12 -5,3 -12,5 -18,6 -8,2 -16,2 -23,1l-51 -3c-1,0 -1,0 -2,-1 0,-1 -1,-1 -1,-2zm196 -12c2,-4 4,-8 6,-12l46 -97c0,-1 1,-2 3,-2l18 1c1,1 2,1 3,2 0,1 0,2 0,3l-65 133c-1,1 -2,1 -3,1l-20 -1c-1,0 -2,-1 -2,-2l-43 -141c-1,-1 -1,-2 0,-3 1,-1 2,-1 3,-1l20 1c1,0 2,1 2,2l29 103c1,4 2,9 3,13zm143 -1l-55 -6 -18 39c-1,1 -2,1 -3,1l-20 -2c-1,0 -2,0 -2,-1 -1,-1 -1,-2 0,-3l67 -132c1,-1 2,-1 3,-1l20 2c2,0 3,1 3,2l43 142c0,1 0,2 0,3 -1,1 -2,1 -3,1l-21 -2c-1,0 -2,-1 -3,-2l-11 -41zm144 16l12 -98c0,-1 1,-3 3,-2l18 2c0,0 1,0 2,1 0,0 0,1 0,2l-16 137c0,1 -2,2 -3,2l-19 -2c-1,0 -2,-1 -3,-2l-55 -107 -12 98c0,2 -2,3 -3,3l-18 -2c-1,-1 -2,-1 -2,-2 -1,0 -1,-1 -1,-2l17 -136c0,-2 1,-3 3,-3l19 2c1,0 2,1 2,2l56 107zm97 -69l-43 -5c-1,-1 -2,-1 -2,-2 -1,0 -1,-1 -1,-2l3 -16c0,-1 1,-3 3,-2l110 15c1,0 1,0 2,1 0,0 1,1 0,2l-2 16c0,2 -2,3 -3,2l-43 -5 -16 117c-1,2 -2,3 -4,2l-18 -2c-1,0 -2,-1 -2,-1 -1,-1 -1,-2 -1,-2l17 -118zm182 4l18 3c1,0 2,1 2,1 0,1 1,2 1,3l-13 78c-2,11 -5,23 -11,33 -5,8 -12,14 -21,18 -11,5 -24,5 -35,3 -12,-2 -23,-5 -32,-12 -8,-6 -14,-14 -16,-24 -3,-11 -2,-24 0,-36l13 -78c0,-2 2,-3 3,-3l19 3c1,0 1,1 2,1 0,1 0,2 0,3l-13 78c-1,7 -2,18 0,25 1,6 4,10 8,13 5,4 11,6 18,7 8,2 20,2 27,-3 9,-7 12,-22 14,-32l12 -78c1,-2 2,-3 4,-3zm118 102c1,2 2,3 3,4 5,7 9,14 12,22l17 41c1,1 1,2 0,3 -1,1 -2,1 -3,1l-23 -4c-1,0 -2,-1 -2,-2l-13 -31c-3,-7 -6,-14 -10,-21 -1,-3 -4,-7 -7,-10 -2,-2 -4,-3 -6,-4 -3,-2 -7,-2 -10,-3l-18 -3 -11 57c0,2 -1,3 -3,3l-18 -4c-1,0 -2,0 -2,-1 -1,-1 -1,-1 -1,-2l25 -135c1,-2 2,-3 4,-3l61 11c9,2 20,4 28,9 7,4 12,10 15,17 2,8 3,15 2,23 -2,10 -7,19 -16,25 -7,5 -16,7 -24,7zm93 -42l-7 36 72 14c1,0 2,1 2,2 1,0 1,1 1,2l-4 16c0,1 -1,2 -3,2l-73 -15 -8 40 81 17c1,0 1,0 2,1 0,1 0,1 0,2l-3 16c0,2 -2,3 -4,2l-102 -20c-1,-1 -1,-1 -2,-2 0,0 0,-1 0,-2l28 -135c0,-1 2,-2 3,-2l100 20c0,0 1,1 1,1 1,1 1,2 1,3l-3 15c-1,2 -2,3 -4,3l-78 -16zm-2815 45c2,14 8,26 19,34 10,8 22,10 34,8 12,-3 22,-9 29,-19 8,-12 8,-27 6,-41 -2,-9 -6,-18 -11,-26 -5,-7 -11,-12 -19,-15 -8,-3 -16,-4 -24,-2 -12,2 -22,8 -29,18 -9,12 -8,29 -5,43zm296 -63l37 -5c5,0 13,-2 18,-5 4,-2 6,-4 8,-8 2,-3 2,-7 2,-11 -1,-5 -4,-10 -8,-13 -6,-4 -15,-3 -22,-2l-40 5 5 39zm195 -3l39 -4 -17 -32c-3,-6 -6,-12 -9,-18 -1,6 -2,11 -3,17l-10 37zm268 14l27 -2c6,0 14,-1 20,-4 4,-1 8,-4 11,-7 5,-5 7,-11 9,-17 2,-8 2,-17 1,-26 -1,-10 -3,-22 -9,-31 -4,-6 -10,-11 -17,-13 -6,-2 -16,-1 -23,-1l-26 2 7 99zm311 -77l37 -1c6,0 13,-1 19,-3 3,-2 7,-4 9,-7 2,-4 3,-7 2,-11 0,-6 -2,-10 -6,-14 -6,-4 -14,-5 -21,-5l-41 2 1 39zm151 15l39 0 -14 -34c-2,-6 -5,-12 -7,-19 -1,6 -3,11 -5,17l-13 36zm526 7l39 2 -12 -35c-2,-6 -4,-12 -5,-19 -2,6 -4,11 -7,16l-15 36zm121 46l27 2c7,1 15,1 21,-1 4,-1 8,-3 12,-6 5,-4 8,-9 10,-15 4,-8 5,-17 6,-26 0,-10 0,-22 -5,-32 -4,-6 -8,-12 -15,-15 -6,-3 -16,-4 -23,-4l-26 -2 -7 99zm268 -21l39 4 -10 -35c-2,-6 -3,-13 -5,-19 -2,5 -4,10 -7,16l-17 34zm530 51l36 6c6,1 13,2 19,1 4,-1 8,-2 11,-5 2,-3 4,-6 5,-10 1,-6 0,-11 -4,-15 -4,-5 -12,-8 -19,-9l-41 -7 -7 39z"/>
    <path class="fil1" d="M1899 505c64,-5 128,-8 192,-12 0,-42 0,-84 0,-126 0,-42 0,-84 0,-126 -109,0 -218,0 -327,1 0,172 0,345 0,517 0,173 0,345 0,518 109,-27 218,-53 327,-76 0,-42 0,-84 0,-126 0,-42 0,-84 0,-126 -64,10 -128,20 -192,32 0,-37 0,-74 0,-111 56,-9 112,-17 168,-24 0,-82 0,-163 0,-245 -56,5 -112,10 -168,15 0,-37 0,-74 0,-111zm243 685c60,-12 121,-24 182,-35 69,-12 126,-67 167,-149 40,-82 64,-193 64,-324 0,-132 -25,-239 -65,-314 -42,-76 -99,-119 -166,-119 -61,1 -122,1 -182,1 0,157 0,314 0,470 0,157 0,314 0,470zm135 -269c0,-71 0,-143 0,-214 0,-72 0,-144 0,-215 16,-1 31,-2 47,-3 63,-3 95,65 95,206 0,140 -32,212 -95,220 -16,2 -31,4 -47,6zm464 -457c63,-2 128,-4 192,-6 0,-36 0,-72 0,-109 0,-36 0,-72 0,-109 -109,0 -219,0 -327,0 0,145 0,290 0,435 0,145 0,290 0,435 108,-15 218,-27 327,-39 0,-36 0,-72 0,-109 0,-36 0,-72 0,-109 -64,5 -129,10 -192,16 0,-32 0,-63 0,-95 55,-4 111,-8 168,-12 0,-70 0,-140 0,-211 -57,3 -113,5 -168,8 0,-32 0,-63 0,-95zm568 371c-63,2 -127,4 -190,7 0,-99 0,-198 0,-297 0,-99 0,-198 0,-297 -46,0 -91,0 -136,0 0,137 0,273 0,410 0,136 0,273 0,409 109,-8 218,-15 326,-20 0,-36 0,-71 0,-106 0,-35 0,-71 0,-106zm515 -587c-10,62 -20,125 -30,188 -10,62 -20,125 -30,188 -10,-63 -21,-126 -30,-188 -10,-63 -20,-126 -30,-188 -44,0 -88,0 -132,-1 -10,63 -20,126 -30,189 -10,62 -19,125 -29,188 -10,-63 -20,-125 -30,-188 -10,-63 -20,-126 -31,-188 -48,0 -97,0 -145,0 22,133 45,265 67,398 22,132 45,265 67,397 44,-1 88,-2 132,-2 11,-69 22,-138 33,-207 10,-68 22,-137 33,-206 10,69 21,138 32,207 11,69 22,138 33,207 43,1 87,2 131,3 23,-132 45,-264 67,-397 23,-133 45,-266 67,-400 -48,0 -97,0 -145,0zm307 208c64,2 128,3 192,5 0,-37 0,-74 0,-110 0,-37 0,-74 0,-111 -109,0 -218,0 -327,0 0,136 0,271 0,407 0,135 0,271 0,406 109,8 218,17 327,28 0,-37 0,-73 0,-110 0,-37 0,-74 0,-111 -64,-5 -128,-9 -192,-13 0,-30 0,-61 0,-91 56,3 112,6 168,9 0,-70 0,-141 0,-212 -56,-2 -112,-4 -168,-6 0,-30 0,-60 0,-91zm378 648c0,-143 0,-285 0,-428 0,-142 0,-285 0,-427 -45,-1 -90,-1 -135,-1 0,140 0,280 0,420 0,140 0,279 0,419 45,5 90,10 135,17zm115 -310c-24,60 -47,120 -70,179 54,100 127,172 211,187 57,10 103,-10 134,-57 32,-47 49,-121 49,-218 0,-176 -61,-249 -123,-286 -61,-36 -123,-39 -123,-77 0,-26 13,-35 44,-33 42,2 93,35 127,93 22,-64 45,-129 68,-194 -53,-102 -118,-154 -192,-154 -54,0 -100,29 -132,79 -32,49 -50,119 -50,204 0,163 62,231 122,269 62,38 123,46 123,84 0,30 -15,39 -45,35 -55,-8 -100,-51 -143,-111zm418 50c-24,64 -47,127 -70,190 54,112 128,193 211,214 57,14 103,-5 134,-56 32,-50 49,-132 49,-239 0,-194 -61,-276 -123,-318 -61,-41 -122,-45 -122,-86 0,-28 12,-38 43,-36 43,3 93,40 127,104 22,-70 45,-141 68,-213 -53,-113 -118,-170 -192,-170 -54,0 -100,32 -132,86 -31,53 -50,129 -50,221 0,177 62,252 123,295 61,44 122,54 122,96 0,33 -15,42 -45,37 -54,-10 -100,-59 -143,-125z"/>
   </g>
   <g>
    <path class="fil2" d="M1296 1084l27 4 -1 109c0,109 -55,159 -145,210l-305 175c-121,70 -165,71 -291,-4l-342 -203c-67,-39 -97,-69 -99,-151l-2 -131 30 -5 0 114c1,79 26,115 89,151l353 203c107,62 133,61 245,-3l303 -172c78,-44 138,-92 138,-185l0 -112zm-583 -520c-31,-39 -60,-89 -86,-149 -3,27 12,112 26,133 12,17 41,23 60,16zm-195 -1c1,2 25,2 38,1 55,-1 56,-128 54,-152l-92 151zm431 3c1,-6 -21,-34 -27,-42 -26,-30 -42,-60 -60,-111 -4,-10 -5,-24 -15,-19 -32,13 -138,9 -179,4 -27,-3 -37,-8 -27,17 19,49 51,98 81,137 9,13 10,14 31,12 33,-2 184,4 196,2zm-725 514l1 118c1,68 56,110 114,137l252 147c133,77 145,76 277,2l276 -156c63,-36 91,-59 91,-131l0 -117c-36,-7 -270,-25 -505,-26 -225,-2 -451,14 -506,26zm506 -485c2387,-3 -2417,3 0,0zm359 -25c-20,-15 -20,-25 -19,-49 0,-19 4,-16 18,-6 10,7 7,6 4,18 -1,6 5,5 10,4 10,-1 19,-3 29,-5 9,-1 18,0 21,11 2,7 -2,21 -7,28 -5,9 -43,8 -56,-1zm-798 -35c11,4 15,8 27,9 8,0 20,6 26,-3 6,-9 -11,-33 -4,-41 5,-5 22,-6 29,-7 21,-5 11,2 25,5 8,3 5,9 4,17 -3,41 -21,46 -57,54 -30,5 -52,13 -57,-18 -1,-4 0,-15 4,-16l3 0zm682 -65c10,-5 9,-1 9,9 1,7 1,6 4,12 2,5 -5,9 -9,12 -16,11 -14,17 5,14 12,-1 24,-2 36,-4l1 0c39,-4 30,52 1,53 -12,0 -28,-3 -42,-8 -27,-12 -53,-44 -57,-73 -1,-14 5,-8 12,-15 8,-7 9,-8 19,-3 2,1 4,2 6,3 6,2 10,3 15,0zm-676 -144l312 -181c105,-61 136,-61 235,-2l290 173c80,49 131,79 131,182l-2 92 -65 -9c-25,-4 -27,-19 -26,-47 0,-8 3,-6 9,-3 5,4 16,13 22,11 8,-2 6,-1 13,3 4,2 6,1 10,-2 6,-5 7,-11 7,-19 -2,-10 -6,-8 -8,-11 -2,-4 8,-7 -3,-14 -4,-2 -8,-2 -6,-7 3,-5 2,-7 -2,-12 -5,-4 -15,-11 -16,-17 -2,-9 8,-14 3,-21 -3,-5 -8,-12 -12,-17 -6,-8 -12,-17 -18,-25 -10,-14 -13,-8 -20,5 -6,11 -13,22 -20,33 -8,15 -11,9 -22,-1 -7,-6 -13,-9 -10,-20 3,-9 9,-8 1,-21 -5,-7 -11,-15 -16,-23 -7,-9 -13,-18 -19,-28 -13,-19 -15,-11 -23,6 -9,16 -18,32 -27,48 -10,18 10,7 -5,22 -2,2 -5,4 -8,6 -4,-7 2,-8 -12,-17 -12,-7 -16,-1 -23,-4 -9,-5 5,-8 9,-10 3,0 18,-5 17,-9 -2,-7 -18,-11 -19,-20 0,-10 1,-9 -7,-16 -2,-2 -15,-11 -13,-13 1,-3 17,3 10,-11 -4,-7 -10,-14 -14,-21 -4,-6 -7,-12 -11,-17 -14,-30 -28,-87 -47,-31 -8,22 -6,13 -22,23 -15,9 4,13 -9,28 -6,6 -15,9 -19,14 -7,11 4,8 8,13 2,2 -1,7 -1,10 0,13 7,14 -8,19 -19,6 -3,17 -31,20 -1,0 -3,0 -4,1 -14,1 -27,0 -41,2 -21,2 -101,-2 -123,-8 -11,-2 -26,-7 -32,3 -4,5 -6,11 -10,16 -30,48 -61,96 -91,144l-3 4c-16,20 -58,25 -74,-11 -4,-12 -9,-30 -5,-43 3,-10 11,-4 17,1 7,6 16,14 26,12 12,-2 9,-1 19,3 8,2 16,-1 22,-6 7,-7 -4,-10 -1,-20 3,-11 -4,-11 -6,-22l-1 -4c0,-13 -7,-11 -12,-19 -5,-12 7,-10 -15,-31 -8,-8 -12,-8 -14,-21 -1,-14 10,-12 6,-20 -3,-7 -14,-9 -18,-23 0,-2 0,-4 -1,-6 -1,-7 -12,-15 -18,-21 -8,-10 -8,-15 -13,-24 -8,-16 -21,6 -22,16 -3,14 0,11 -10,21 -2,3 -3,4 -4,7 -5,11 -9,11 -14,20 -20,31 16,13 -10,34 -4,3 -5,6 -7,11 -3,7 -8,11 -11,17 -7,10 11,10 15,16 3,6 -16,9 -19,11 -8,3 -9,7 -8,15 1,2 1,3 2,4 4,8 8,9 -3,12 -11,3 -22,-6 -17,-18 5,-11 0,-15 -7,-25 -6,-10 -14,-21 -20,-31 -10,-14 -12,-8 -20,5 -5,9 -19,31 -22,40 -1,11 6,10 -5,21 -4,3 -12,12 -9,18 1,2 4,7 6,9 -16,10 -13,5 -16,22 -2,10 -34,26 18,20 22,-2 37,-7 29,20 -3,11 -7,21 -18,22l-50 8 -2 -99c-2,-79 44,-128 103,-162zm1025 271l-30 -5 1 -96c1,-85 -45,-142 -122,-188l-330 -195c-95,-57 -128,-56 -235,6 -108,62 -216,123 -323,185 -88,50 -116,106 -115,186l2 100 -30 5 -2 -104c-2,-82 23,-150 117,-205l351 -205c99,-58 146,-57 239,-2l344 201c97,57 135,124 134,220l-1 97zm-741 -545l-343 200c-86,51 -141,117 -141,221l-1 131 -96 25 0 479 96 31 0 84c0,90 17,125 131,193l305 184c174,104 220,102 364,19l313 -180c78,-45 151,-120 152,-217l0 -83 102 -31 0 -484 -103 -20 0 -129c0,-102 -70,-177 -153,-227l-340 -200c-108,-64 -171,-63 -286,4z"/>
    <path class="fil3" d="M224 1080l1 118c1,68 56,110 114,137l252 147c133,77 145,76 277,2l276 -156c63,-36 91,-59 91,-131l0 -117c-36,-7 -270,-25 -505,-26 -225,-2 -451,14 -506,26z"/>
    <path class="fil4" d="M1296 1084l27 4 -1 109c0,109 -55,159 -145,210l-305 175c-121,70 -165,71 -291,-4l-342 -203c-67,-39 -97,-69 -99,-151l-2 -131 30 -5 0 114c1,79 26,115 89,151l353 203c107,62 133,61 245,-3l303 -172c78,-44 138,-92 138,-185l0 -112zm-582 -740c56,0 102,-46 102,-102 0,-57 -46,-102 -102,-102 -57,0 -102,45 -102,102 0,56 45,102 102,102zm-646 682c73,-10 391,-43 660,-42 268,1 633,33 665,43l-2 -339c-218,-31 -440,-50 -661,-50 -221,0 -443,18 -661,50l-1 338zm1395 -402l1 484 -1 0 0 -484 -103 -20 0 -129c0,-102 -70,-177 -153,-227l-340 -200c-93,-55 -153,-62 -240,-21 88,-42 147,-35 241,21l339 200c83,50 154,125 154,227l0 129 102 20zm-102 515l0 83c0,96 -73,172 -152,217l-313 180c-18,10 -34,20 -50,27 15,-7 32,-17 50,-27l313 -180c78,-45 151,-120 152,-217l0 -83 0 0zm-1360 -511l0 0 95 -24 0 0 -95 24zm36 437c-2,-4 -3,-372 -2,-405 141,-36 415,-65 695,-65 259,0 588,39 698,61l0 408c-231,-26 -450,-47 -695,-46 -222,1 -491,22 -696,47zm1052 -495c-20,-15 -20,-25 -19,-49 0,-19 4,-16 18,-6 10,7 7,6 4,18 -1,6 5,5 10,4 10,-1 19,-3 29,-5 9,-1 18,0 21,11 2,7 -2,21 -7,28 -5,9 -43,8 -56,-1zm-798 -35c11,4 15,8 27,9 8,0 20,6 26,-3 6,-9 -11,-33 -4,-41 5,-5 22,-6 29,-7 21,-5 11,2 25,5 8,3 5,9 4,17 -3,41 -21,46 -57,54 -30,5 -52,13 -57,-18 -1,-4 0,-15 4,-16l3 0zm682 -65c10,-5 9,-1 9,9 1,7 1,6 4,12 2,5 -5,9 -9,12 -16,11 -14,17 5,14 12,-1 24,-2 36,-4l1 0c39,-4 30,52 1,53 -12,0 -28,-3 -42,-8 -27,-12 -53,-44 -57,-73 -1,-14 5,-8 12,-15 8,-7 9,-8 19,-3 2,1 4,2 6,3 6,2 10,3 15,0zm-676 -144l312 -181c105,-61 136,-61 235,-2l290 173c80,49 131,79 131,182l-2 92 -65 -9c-25,-4 -27,-19 -26,-47 0,-8 3,-6 9,-3 5,4 16,13 22,11 8,-2 6,-1 13,3 4,2 6,1 10,-2 6,-5 7,-11 7,-19 -2,-10 -6,-8 -8,-11 -2,-4 8,-7 -3,-14 -4,-2 -8,-2 -6,-7 3,-5 2,-7 -2,-12 -5,-4 -15,-11 -16,-17 -2,-9 8,-14 3,-21 -3,-5 -8,-12 -12,-17 -6,-8 -12,-17 -18,-25 -10,-14 -13,-8 -20,5 -6,11 -13,22 -20,33 -8,15 -11,9 -22,-1 -7,-6 -13,-9 -10,-20 3,-9 9,-8 1,-21 -5,-7 -11,-15 -16,-23 -7,-9 -13,-18 -19,-28 -13,-19 -15,-11 -23,6 -9,16 -18,32 -27,48 -10,18 10,7 -5,22 -2,2 -5,4 -8,6 -4,-7 2,-8 -12,-17 -12,-7 -16,-1 -23,-4 -9,-5 5,-8 9,-10 3,0 18,-5 17,-9 -2,-7 -18,-11 -19,-20 0,-10 1,-9 -7,-16 -2,-2 -15,-11 -13,-13 1,-3 17,3 10,-11 -4,-7 -10,-14 -14,-21 -4,-6 -7,-12 -11,-17 -14,-30 -28,-87 -47,-31 -8,22 -6,13 -22,23 -15,9 4,13 -9,28 -6,6 -15,9 -19,14 -7,11 4,8 8,13 2,2 -1,7 -1,10 0,13 7,14 -8,19 -19,6 -3,17 -31,20 -1,0 -3,0 -4,1 -14,1 -27,0 -41,2 -21,2 -101,-2 -123,-8 -11,-2 -26,-7 -32,3 -4,5 -6,11 -10,16 -30,48 -61,96 -91,144l-3 4c-16,20 -58,25 -74,-11 -4,-12 -9,-30 -5,-43 3,-10 11,-4 17,1 7,6 16,14 26,12 12,-2 9,-1 19,3 8,2 16,-1 22,-6 7,-7 -4,-10 -1,-20 3,-11 -4,-11 -6,-22l-1 -4c0,-13 -7,-11 -12,-19 -5,-12 7,-10 -15,-31 -8,-8 -12,-8 -14,-21 -1,-14 10,-12 6,-20 -3,-7 -14,-9 -18,-23 0,-2 0,-4 -1,-6 -1,-7 -12,-15 -18,-21 -8,-10 -8,-15 -13,-24 -8,-16 -21,6 -22,16 -3,14 0,11 -10,21 -2,3 -3,4 -4,7 -5,11 -9,11 -14,20 -20,31 16,13 -10,34 -4,3 -5,6 -7,11 -3,7 -8,11 -11,17 -7,10 11,10 15,16 3,6 -16,9 -19,11 -8,3 -9,7 -8,15 1,2 1,3 2,4 4,8 8,9 -3,12 -11,3 -22,-6 -17,-18 5,-11 0,-15 -7,-25 -6,-10 -14,-21 -20,-31 -10,-14 -12,-8 -20,5 -5,9 -19,31 -22,40 -1,11 6,10 -5,21 -4,3 -12,12 -9,18 1,2 4,7 6,9 -16,10 -13,5 -16,22 -2,10 -34,26 18,20 22,-2 37,-7 29,20 -3,11 -7,21 -18,22l-50 8 -2 -99c-2,-79 44,-128 103,-162zm1025 271l-30 -5 1 -96c1,-85 -45,-142 -122,-188l-330 -195c-95,-57 -128,-56 -235,6 -108,62 -216,123 -323,185 -88,50 -116,106 -115,186l2 100 -30 5 -2 -104c-2,-82 23,-150 117,-205l351 -205c99,-58 146,-57 239,-2l344 201c97,57 135,124 134,220l-1 97z"/>
    <path class="fil3" d="M949 566c1,-6 -21,-34 -27,-42 -26,-30 -42,-60 -60,-111 -4,-10 -5,-24 -15,-19 -32,13 -138,9 -179,4 -27,-3 -37,-8 -27,17 19,49 51,98 81,137 9,13 10,14 31,12 33,-2 184,4 196,2z"/>
    <g>
     <path class="fil5" d="M149 783l3 34 71 -9c1,0 3,0 4,1 1,1 1,2 1,3l3 34c0,3 -2,5 -4,5l-72 10 3 44 80 -11c1,0 3,0 4,1 1,1 1,2 2,4l2 33c0,3 -2,5 -4,5l-116 16c-2,0 -3,0 -4,-1 -1,-1 -2,-2 -2,-4l-14 -199c0,-2 2,-4 4,-5l113 -15c1,0 3,0 4,1 1,1 2,2 2,4l2 33c0,3 -2,5 -4,6l-78 10zm107 -58l57 -5c9,-1 21,-2 31,1 10,3 19,10 26,18 8,10 13,21 17,33 5,15 7,32 7,48 1,14 1,29 -2,44 -3,13 -8,27 -16,38 -6,9 -14,15 -23,20 -8,4 -19,6 -28,7l-58 5c-2,0 -3,0 -4,-1 -1,-1 -2,-2 -2,-4l-9 -199c0,-3 2,-5 4,-5zm196 28l1 34 72 -4c1,0 2,1 3,2 1,1 2,2 2,3l1 34c0,2 -2,5 -5,5l-72 4 2 44 80 -4c1,0 3,0 4,1 1,1 1,2 1,3l1 34c0,3 -2,5 -4,5l-117 7c-1,0 -2,0 -3,-1 -1,-1 -2,-2 -2,-4l-6 -199c0,-3 2,-5 5,-5l113 -7c2,0 3,0 4,1 1,1 1,2 1,4l1 33c1,3 -2,5 -4,6l-78 4zm148 116l72 -2c1,0 3,0 4,1 1,1 1,2 1,4l0 33c0,3 -2,5 -4,5l-108 3c-2,0 -3,0 -4,-1 -1,-1 -1,-2 -1,-4l-2 -198c0,-2 2,-5 5,-5l31 -1c1,0 2,1 3,2 1,1 2,2 2,3l1 160zm124 -52l25 -111c0,-2 2,-4 4,-4l37 1c3,0 5,1 5,4l20 113 20 -112c1,-3 3,-5 5,-5l31 1c2,0 3,1 4,2 1,1 2,2 1,4l-40 199c0,2 -2,4 -4,4l-34 -1c-2,0 -4,-1 -4,-4l-24 -125 -27 125c-1,2 -3,4 -5,4l-34 -1c-3,0 -5,-2 -5,-4l-33 -200c0,-2 0,-3 1,-4 1,-2 2,-2 4,-2l32 0c2,0 4,2 4,5l17 111zm203 -65l-1 34 71 4c3,0 5,3 5,5l-1 34c-1,1 -1,3 -2,4 -1,0 -2,1 -4,1l-71 -4 -2 44 81 4c2,1 4,3 4,6l-1 33c0,2 -1,3 -2,4 -1,1 -2,1 -3,1l-117 -7c-2,0 -4,-2 -4,-5l8 -199c0,-2 0,-3 1,-4 1,-1 2,-1 4,-1l113 6c3,1 5,3 5,6l-2 33c0,2 0,3 -1,4 -1,1 -2,1 -4,1l-77 -4zm94 167l12 -199c0,-2 0,-3 1,-4 1,-1 3,-1 4,-1l31 3c3,0 5,2 4,5l-11 199c0,2 -1,3 -2,4 -1,1 -2,1 -3,1l-31 -3c-3,0 -5,-2 -5,-5zm62 -65l30 -1c3,0 5,2 5,4 1,9 3,21 8,28 5,6 11,9 18,10 7,0 14,0 19,-5 5,-4 7,-9 8,-15 0,-3 0,-7 -2,-10 -2,-3 -6,-6 -9,-8 -7,-4 -16,-7 -23,-11 -13,-5 -27,-13 -35,-25 -10,-13 -14,-28 -12,-45 0,-10 3,-21 9,-30 5,-9 13,-16 22,-20 11,-4 22,-5 33,-4 18,2 35,8 46,23 10,15 14,32 13,49 0,2 -1,3 -2,4 -1,1 -2,1 -3,1l-31 -2c-3,0 -5,-2 -5,-5 0,-6 -2,-15 -6,-20 -4,-4 -10,-6 -15,-7 -7,-1 -13,0 -18,4 -3,2 -4,5 -4,8 0,4 1,7 3,10 4,5 19,12 25,15 11,4 24,10 33,18 8,7 14,15 17,24 4,11 5,23 4,35 0,12 -4,23 -10,33 -6,10 -14,18 -24,22 -12,5 -24,6 -36,4 -19,-2 -36,-9 -47,-24 -12,-16 -16,-36 -16,-55 0,-3 2,-5 5,-5zm144 17l30 0c3,0 5,2 5,5 0,9 2,20 7,27 5,7 11,10 18,11 7,1 14,0 19,-4 5,-4 7,-9 8,-15 0,-3 0,-7 -2,-10 -1,-3 -5,-6 -8,-8 -7,-4 -16,-8 -23,-12 -13,-6 -27,-14 -35,-26 -9,-14 -13,-29 -11,-45 1,-11 4,-21 9,-30 6,-9 14,-16 23,-19 11,-5 22,-5 33,-4 18,3 35,10 45,25 11,15 14,32 13,49 -1,2 -1,3 -2,4 -1,1 -2,1 -4,1l-31 -3c-2,0 -4,-2 -4,-5 -1,-6 -2,-15 -6,-20 -3,-5 -9,-7 -15,-8 -6,0 -13,0 -18,4 -3,2 -4,5 -4,8 0,4 1,7 3,9 4,6 18,13 25,16 11,5 24,12 33,20 7,6 13,15 16,24 4,11 5,23 4,35 -1,12 -5,23 -11,33 -6,10 -14,17 -25,21 -11,5 -24,5 -36,3 -19,-2 -35,-10 -46,-25 -12,-16 -15,-37 -15,-56 0,-2 0,-3 1,-4 1,-1 2,-1 4,-1zm-933 -106l6 122 18 -1c5,-1 12,-2 17,-4 4,-1 7,-4 10,-7 3,-5 5,-13 6,-18 2,-12 2,-24 2,-36 -1,-11 -2,-24 -5,-34 -2,-6 -4,-12 -9,-16 -3,-4 -7,-6 -12,-7 -6,-1 -17,0 -23,0l-10 1z"/>
    </g>
    <path class="fil6" d="M125 948l-14 -199 113 -15 2 34 -82 11 3 44 76 -10 3 33 -76 10 3 54 85 -11 3 34 -116 15zm132 -218l56 -5c13,-1 22,-1 29,1 9,3 17,8 24,16 7,8 12,19 16,31 4,13 6,28 7,47 1,16 0,31 -2,43 -3,15 -8,27 -15,36 -5,8 -12,14 -21,18 -7,4 -16,6 -27,7l-58 5 -9 -199zm32 31l6 132 23 -2c9,-1 15,-2 19,-4 5,-2 9,-5 12,-9 3,-5 5,-11 7,-20 2,-9 2,-22 1,-37 0,-15 -2,-27 -4,-35 -3,-8 -6,-14 -10,-19 -4,-4 -9,-7 -15,-8 -4,-1 -12,-1 -25,0l-14 2zm132 155l-6 -200 113 -6 1 34 -82 4 1 45 77 -5 1 34 -77 4 2 54 85 -4 1 33 -116 7zm144 -8l-2 -198 31 -1 1 165 77 -2 0 33 -107 3zm139 -2l-33 -200 32 0 20 138 30 -137 37 1 25 140 25 -140 31 1 -40 199 -33 0 -28 -150 -32 149 -34 -1zm181 5l7 -200 114 6 -2 34 -82 -4 -2 44 77 4 -2 34 -76 -4 -2 54 85 4 -1 34 -116 -6zm141 8l11 -199 31 3 -11 199 -31 -3zm57 -61l30 0c1,13 4,23 9,30 5,7 12,11 22,12 10,1 17,-1 23,-6 5,-5 8,-11 9,-19 0,-4 -1,-8 -3,-12 -2,-4 -5,-7 -10,-10 -4,-2 -12,-6 -24,-11 -16,-7 -27,-15 -33,-24 -9,-12 -13,-26 -12,-41 1,-11 4,-20 9,-28 5,-9 12,-15 20,-18 9,-4 19,-5 31,-4 19,2 33,9 42,21 9,12 13,28 12,46l-31 -2c-1,-10 -3,-18 -7,-23 -4,-5 -10,-8 -19,-9 -9,-1 -16,1 -21,5 -4,3 -6,7 -6,12 0,5 1,9 4,13 3,4 12,10 27,16 15,6 25,12 32,18 7,6 12,13 16,22 3,9 4,20 3,33 0,11 -4,21 -9,31 -6,9 -13,16 -22,20 -9,4 -21,5 -34,3 -19,-2 -34,-9 -43,-22 -10,-13 -15,-30 -15,-53zm143 18l31 0c0,13 3,23 8,30 5,7 12,11 22,13 9,1 17,-1 23,-5 5,-5 8,-11 9,-19 0,-4 -1,-8 -2,-12 -2,-4 -6,-7 -11,-10 -3,-2 -11,-6 -23,-12 -16,-8 -27,-16 -33,-25 -9,-12 -12,-26 -11,-42 1,-10 4,-19 9,-27 6,-9 12,-14 21,-18 9,-3 19,-4 31,-3 19,3 33,11 41,23 9,12 13,28 11,46l-30 -3c-1,-10 -3,-18 -7,-23 -4,-5 -10,-8 -19,-9 -9,-2 -16,0 -21,4 -4,3 -6,6 -6,12 0,4 1,9 3,12 4,5 13,11 27,18 15,6 26,13 32,18 7,6 12,14 15,23 4,9 5,20 4,32 -1,12 -5,22 -10,31 -6,10 -14,16 -23,20 -9,3 -20,4 -34,2 -19,-2 -33,-10 -43,-23 -9,-13 -13,-31 -14,-53z"/>
    <path class="fil3" d="M518 563c1,2 25,2 38,1 55,-1 56,-128 54,-152l-92 151z"/>
    <path class="fil3" d="M713 564c-31,-39 -60,-89 -86,-149 -3,27 12,112 26,133 12,17 41,23 60,16z"/>
    <polygon class="fil7" points="1464,0 1463,1 "/>
    <path class="fil8" d="M714 344c56,0 102,-46 102,-102 0,-57 -46,-102 -102,-102 -57,0 -102,45 -102,102 0,56 45,102 102,102z"/>
    <g>
     <path class="fil4" d="M893 1083l52 7c1,-1 2,-1 3,-2 6,-1 10,-2 16,-1 1,1 3,2 5,2l78 9c15,2 23,9 35,18 9,6 23,14 27,26 1,6 2,14 0,21 3,3 4,7 6,12 0,1 0,2 0,2 3,4 4,7 4,12 1,5 1,9 1,12 15,2 21,15 18,29 -1,5 -4,9 -8,12 -6,4 -11,4 -17,4 1,5 0,11 -6,15 -2,1 -6,3 -8,5 0,1 0,3 1,4 0,1 1,2 2,3 2,2 4,4 6,7 8,10 12,23 15,35 3,14 5,32 3,46 -3,21 -6,41 -18,59 -3,5 -6,10 -10,15 -14,20 -38,34 -62,35 -14,1 -27,0 -40,1 -17,1 -23,0 -38,-8 -6,-3 -19,-15 -24,-20 -7,-8 -11,-16 -16,-26 -2,-5 -5,-9 -8,-14l-1 -1c-1,0 -1,0 -2,0 -6,0 -12,0 -18,0 -8,0 -21,1 -27,-5l-1 -1c-7,6 -19,10 -27,13 -8,3 -17,2 -25,-1l0 2c-2,5 -4,9 -6,14 -4,6 -7,12 -10,18 -4,8 -8,15 -12,23 -11,16 -32,32 -52,33 -21,0 -43,0 -64,1l-1 0c-30,0 -57,-5 -73,-33 -9,-16 -17,-34 -21,-52 0,-3 -1,-5 -1,-8 -11,11 -17,10 -31,12 -15,2 -26,-5 -35,-16 -4,-1 -16,3 -20,4l0 0c-1,1 -1,3 -1,4 -1,6 -2,11 -4,17 -5,19 -13,36 -28,49 -13,10 -20,11 -36,11l-33 0c-17,0 -32,-8 -40,-24 -10,-21 -13,-37 -15,-61 -1,-23 1,-65 13,-89 -1,-1 -1,-1 -2,-2 -7,-7 -8,-16 -7,-25l8 -81c0,-5 2,-9 5,-12l13 -108c1,-11 5,-23 13,-31l0 -28c0,-12 8,-19 16,-19 1,-1 3,-2 4,-3l65 -34c9,-4 18,-8 28,-11 24,-9 48,-18 74,-22 1,-1 3,-3 4,-4 9,-7 18,-11 29,-9 5,2 10,5 14,9 4,-5 10,-8 16,-9 17,-2 32,10 34,25 6,-6 13,-10 22,-9 9,0 17,6 21,14 2,5 3,10 3,15l2 1c5,-11 15,-20 28,-18 14,2 22,16 22,29l2 1c1,-2 2,-4 3,-6 6,-9 15,-14 25,-12 12,1 20,13 22,25l1 -2c5,-9 14,-14 25,-13 15,2 23,17 22,31 13,5 17,13 23,29l19 49z"/>
     <g>
      <path class="fil2" d="M671 1381l-6 -12c1,0 6,-5 10,2 1,3 4,9 8,5 1,-1 1,-4 2,-6 0,-2 2,-2 3,-4 9,-18 -7,-79 -28,-87 -15,-5 -27,2 -34,15 -5,11 -9,21 -12,32 -5,21 1,62 17,76 6,4 14,5 24,5 6,-1 6,-2 10,-5 6,-4 2,-2 6,-7 3,-3 3,-6 6,-9 5,-7 -4,-5 -6,-5z"/>
      <path class="fil2" d="M1098 1229c3,2 8,2 12,2 6,0 13,2 14,-4 1,-6 0,-11 -6,-12 -4,0 -12,-2 -14,2 -1,2 -1,5 -2,7 -1,3 -3,2 -4,5z"/>
      <path class="fil2" d="M701 1384c6,-7 0,-9 -3,-14 -1,-3 -3,-2 -6,-1 -3,1 -6,6 0,9 3,2 4,6 9,6z"/>
      <path class="fil2" d="M485 1190c3,0 8,-2 11,-3 3,-1 7,-7 7,-8 -4,-3 -8,-2 -13,1 -4,2 -8,3 -5,10z"/>
      <path class="fil2" d="M968 1234c1,1 5,4 7,5 1,-3 1,-3 2,-6 1,-2 2,-2 4,-4 -1,-4 -5,-8 -8,-5 -2,2 -5,6 -5,10z"/>
      <path class="fil2" d="M628 1429c-2,5 -2,8 0,13l5 -1c3,-12 4,-8 -5,-12z"/>
      <path class="fil2" d="M1070 1228l-3 -1c-3,3 -2,4 -3,7 -1,1 -6,4 -2,6 5,2 9,-4 8,-12z"/>
      <path class="fil2" d="M647 1441c5,0 9,-6 7,-10 -4,0 -3,2 -6,4 -3,2 -3,3 -1,6z"/>
      <path class="fil9" d="M507 994c-2,-3 -10,-4 -10,0 0,4 8,3 10,0z"/>
      <path class="fil2" d="M680 1396c0,2 0,2 0,4 3,0 3,-2 3,-4 1,-2 1,-2 -1,-4 -2,0 -2,1 -2,4z"/>
      <path class="fil2" d="M687 1388c1,-2 2,-3 1,-5 -1,-2 -1,-2 -1,-2 -3,2 -3,5 0,7z"/>
      <path class="fil2" d="M667 1234c0,1 0,-2 0,0z"/>
      <path class="fil7" d="M916 1326c0,1 0,-1 0,0z"/>
      <path class="fil2" d="M396 1017c-4,2 -5,3 -5,7l1 32 -6 3c0,0 0,-1 0,-1l1 -32c0,-7 -4,-6 -4,0l0 29c0,4 0,6 -2,7 -5,5 -9,13 -11,25l-13 110c-1,4 -4,3 -5,9l-8 81c-1,19 9,15 13,19 2,3 0,5 -1,7 -13,16 -17,59 -15,88 1,24 3,35 13,56 6,11 16,15 27,15l33 0c13,0 16,0 27,-8 12,-10 19,-25 23,-41 2,-6 4,-17 6,-25 1,-5 4,-5 10,-7l15 -3c5,-1 14,-3 19,4 5,6 11,13 22,12 14,-3 16,-1 24,-10 14,-13 19,-15 21,-8 3,6 -2,30 22,73 13,21 32,26 61,25 22,0 43,-1 65,-1 17,0 33,-16 39,-26 0,0 23,-43 23,-43 -1,-3 -5,-4 -7,-6 -5,-3 -5,-1 -9,1 -4,-10 -8,-15 5,-20 1,1 6,8 7,8 3,6 3,4 8,7l-1 -15c3,0 26,10 35,6 4,-1 12,-4 15,-6 3,-2 5,-2 7,-4 2,-3 4,-4 4,-7 -6,-2 -18,2 -16,-11 0,-5 2,-23 4,-25 2,1 7,2 8,3l-3 5c3,5 6,1 7,11 0,4 0,15 3,16l5 -4c8,1 6,10 9,14 5,1 23,0 35,0 10,0 10,0 15,8 8,12 11,25 23,39 2,2 17,15 20,16 12,6 14,7 30,6 12,0 27,0 40,-1 19,-1 40,-13 51,-28 4,-5 6,-9 10,-15 3,-5 8,-10 1,-16 -2,-3 -2,-6 -4,-8 -1,-3 -4,-5 -2,-10 6,-1 9,7 11,10 8,-4 -5,-15 -6,-18 -1,-2 -1,-6 -2,-9 -10,-1 -9,4 -9,11 1,6 -5,12 -8,13 -3,-3 -2,-6 -1,-8 2,-5 1,-6 0,-10 0,-4 2,-6 3,-8 7,-8 -4,-13 11,-6 7,3 2,4 5,7 4,4 2,-2 5,7 1,2 5,4 7,4 9,-11 4,-41 2,-53 -3,-10 -9,-29 -17,-34 -2,-3 -5,-6 -6,-10 -5,-16 1,-18 13,-26 0,-3 -2,-11 -3,-17 -1,-9 -7,-6 -7,-13l9 -1c1,-1 6,-9 6,-11 2,-3 1,-11 1,-15 -1,-7 -3,-7 -5,-13 -1,-5 -2,-8 -8,-9 -5,5 -4,5 -4,12l-5 0 -2 -11c1,-1 10,-6 12,-8 3,-2 3,-12 2,-16 -2,-7 -16,-15 -22,-19 -9,-6 -16,-13 -27,-14l-79 -10c-8,-1 -6,-4 -14,-1 -1,0 -1,1 -3,2l-1 1 -67 -9c0,-1 -1,-3 -2,-7l-20 -50c-7,-18 -8,-20 -24,-24l-3 0c2,-3 3,-6 3,-9 2,-9 -3,-17 -9,-18 -7,0 -13,6 -14,15 -1,8 -2,7 -9,5l-19 -4c2,-2 3,-3 4,-9 0,-6 -3,-16 -10,-17 -6,-1 -13,5 -14,14 -1,8 -3,7 -7,6l-25 -6c2,-2 3,-2 3,-8 1,-6 -2,-17 -9,-18 -6,-1 -12,6 -14,14 -1,6 -6,6 -9,5l-23 -5c1,-2 3,-5 3,-9 1,-8 -3,-16 -9,-17 -6,-1 -12,4 -14,12 -1,5 -3,9 -9,7l-19 -4c-8,-2 2,-6 4,-9 6,-9 -2,-23 -15,-21 -13,1 -14,15 -19,12 -12,-8 -17,-20 -34,-7 -2,2 -5,6 -9,7 -25,4 -49,12 -73,21 -10,4 -18,7 -26,11l-65 34zm274 -31c2,0 3,0 5,-1l41 9c2,2 4,3 6,4 2,0 4,0 6,-1l40 9c2,2 4,3 7,4 2,0 3,-1 5,-1l36 8c2,1 4,3 6,3 2,0 4,0 6,-1l6 2c17,3 17,5 22,20l19 51c1,2 0,3 -1,3l-2 0 0 0 -21 -55c-4,-12 -7,-13 -18,-15l-224 -49c-3,0 -2,-6 2,-5 5,1 12,2 17,3l36 8c2,2 4,3 6,4zm-49 123c-2,-4 -6,-15 -10,-17 -2,-1 -4,0 -4,5l1 21c0,0 11,-7 13,-9zm3 -2c5,-4 9,-5 17,-7l57 -7 -70 -11c-3,0 -3,-1 -8,-1 -4,0 -4,5 -4,8 1,2 7,16 8,18zm109 -21l25 1c3,0 4,0 4,-1 -1,-2 0,-5 0,-6 2,-6 7,-14 13,-15l52 -13c2,-1 3,-3 3,-6 0,-4 -7,-5 -13,-6l-200 -40c-19,-3 -18,2 -17,12l4 43c6,12 8,9 20,12 14,2 71,14 95,18 7,1 7,1 14,1zm44 12c-5,-4 -13,-5 -21,-5 -19,2 -88,7 -114,13 -16,4 -21,9 -33,20l168 -28zm5 4l-173 29 0 0 6 5c-1,1 -6,3 -7,4l0 0c-3,5 5,14 13,14 9,0 39,-13 57,-16 6,0 15,-1 21,1 7,2 11,7 15,13 8,14 18,33 31,44 13,11 18,12 28,8 3,-1 3,-1 2,-4l-26 -68c-3,-8 -5,-9 -13,-8l-29 5 31 -9c6,-2 11,0 14,8l33 84c6,18 9,15 19,16 6,1 39,3 49,4 2,0 9,2 11,0 4,-4 -2,-6 -3,-8 -2,-6 16,-4 22,-4 8,0 45,-1 46,-7 -6,-4 -24,1 -31,0 -11,0 -4,-1 -20,-1 -14,0 -31,2 -45,4 -10,1 -6,1 -12,4 -8,5 -21,-1 -24,-6 -2,-4 -5,-7 -5,-11 -2,-8 0,-9 0,-14 0,-8 0,-60 -1,-78 -1,-5 -2,-10 -9,-9zm-323 -89l0 9c0,2 0,2 1,2l3 -2c1,0 1,0 1,-2 0,-3 0,-6 0,-9l0 -19c-1,-2 -2,-3 -4,-1l-56 28c-3,2 -8,5 -2,8 3,1 7,3 9,3 4,1 7,-1 10,-3l32 -16c5,-2 6,-2 6,2zm12 -4l0 7c0,1 0,2 1,2 1,0 2,-1 3,-2 1,0 2,0 1,-1 0,-2 0,-5 0,-7 0,-2 0,-2 -2,-2l-3 1c0,0 0,1 0,2zm-16 29l0 -7 -59 29 0 6c1,0 1,-1 2,-1l57 -27zm0 -12l0 -7 -56 29c-1,0 -2,1 -3,1l0 6 59 -29zm-73 48c0,-5 0,-3 0,-8 -4,3 -9,15 -9,25 1,-5 6,-15 9,-17zm160 -101l0 -12c-18,4 -39,11 -55,18 -5,2 -7,2 -7,6l0 8c1,4 4,3 7,2l55 -22zm5 -13l0 11c4,-1 6,-3 7,-5l1 -5c0,-2 -1,-3 -4,-2 -1,0 -2,0 -4,1zm-52 47l32 -16c-9,-2 -20,5 -37,11 -3,1 -7,2 -3,5l8 0zm38 -13l-47 22c1,6 4,6 14,1l30 -14c5,-3 4,-7 3,-9zm-160 220l40 -8c9,-2 12,0 14,9l15 70c1,5 -1,5 -9,4 -2,-1 -3,-1 -5,-2 -5,-2 -9,-7 -12,-13 -4,-11 -7,-36 -19,-46 -5,-5 -30,-4 -36,9 -5,15 -9,46 -9,53 -1,2 -4,2 -4,0l8 -81c0,-3 1,-6 4,-7l121 -43 -12 123c0,6 0,7 -6,7 -3,1 -7,1 -11,1 -3,0 -3,-1 -4,-5l-15 -72c-3,-13 -9,-16 -21,-12l-39 13zm210 60l8 -1 2 -23 -9 0 -1 24zm12 -2c2,-7 8,-20 10,-23l-8 1 -2 22zm1 4c-7,1 -13,2 -19,3l-122 18c-12,1 -7,9 6,7l114 -16c6,-1 15,-3 18,-7 1,-1 2,-3 3,-5zm-15 -42l4 -74c0,-1 -1,-1 -2,-2 -1,-1 -3,-2 -3,-4l1 -17 -90 27 1 -4 90 -27 0 -5 -75 22 1 -4 75 -22 0 -4 -48 14 1 -4 47 -13c0,-3 -1,-7 -3,-7l-17 -1c-3,0 -6,1 -7,-1l-45 15c-2,1 -4,1 -6,2 -6,1 -7,-5 -7,-10l7 -70c2,-11 5,-15 15,-19l44 -19c3,-1 8,-3 9,0 2,3 -2,5 -7,7l-42 18c-4,2 -11,8 -12,15l-5 61c-1,5 0,10 7,8l37 -12c2,-1 3,-1 3,-3 0,-2 -1,-2 -3,-2l-16 -1c-7,-1 -7,-7 -7,-13l3 -36c1,-4 2,-5 7,-5l19 1c5,0 7,4 6,8l-1 20c-2,-12 -4,-22 -10,-23l-9 0c-5,0 -7,1 -7,6l-2 28c-1,3 1,5 4,6l14 1c7,1 8,-9 10,-12 1,3 1,10 0,15 0,7 -2,4 -2,6 0,1 0,2 0,2 0,1 1,1 3,1l18 1c2,0 5,-2 5,-5 0,-32 -4,-68 -7,-101 0,-5 -2,-5 -7,-3l-65 29c-5,3 -11,8 -11,13l-23 248c-1,6 1,5 6,4l88 -13c6,-1 11,-1 11,-7l3 -35zm9 -71l-5 66c0,3 4,3 6,-1 7,-17 10,-34 10,-41 -1,-10 -5,-21 -8,-24 -1,-2 -3,-3 -3,0zm-228 18l121 -45 0 -3 -120 45 -1 3zm121 -40l-121 46 -2 11 121 -43 2 -14zm-120 33l121 -45 8 -86c1,-5 -7,-6 -15,-3l-80 37c-8,4 -23,12 -25,23l-9 74zm196 -185l-1 -5c2,0 11,-6 12,0l-11 5zm-84 8l1 -12c0,-5 -6,-2 -6,2l0 11c0,3 5,2 5,-1zm-97 470c0,-1 0,-1 0,-1 0,-4 4,-6 5,-8 2,-3 2,-3 7,-2 2,4 -1,6 -3,9 -3,3 -6,3 -9,2zm211 -399l-5 -72c-1,-3 4,-3 4,0l5 70c1,2 0,3 -1,3 0,1 -1,1 -2,1 -1,1 -1,-1 -1,-2zm198 20l3 1 75 9c3,1 4,1 4,3l0 6c0,2 0,2 -4,2 -15,-2 -60,-7 -65,-8 -6,-1 -10,-8 -13,-13zm94 12l30 5c4,0 3,1 3,3l0 6c0,2 -3,2 -4,2l-31 -5c-2,0 -4,-2 -4,-3l1 -6c0,-2 1,-2 5,-2zm63 9c-4,5 -1,11 -8,10l-13 -1c-2,-1 -4,-2 -4,-4l1 -6c0,-1 1,-2 3,-2l21 3zm-161 -27c-10,-2 -4,-9 1,-11l44 -15c4,-2 12,-2 13,2l9 23c1,3 3,10 -3,10l-64 -9zm-35 357c0,-3 1,-7 3,-8 2,-2 1,-1 2,-3 1,-1 1,-1 3,-2l2 2c0,8 -3,15 -10,11zm-371 -1c1,-3 0,-5 3,-7 3,-2 2,-3 5,-5 3,0 3,1 5,4 2,4 1,3 0,7 -9,-4 -6,0 -10,3 -2,-1 -2,-1 -3,-2zm21 -9c0,-4 2,-4 3,-7 3,-5 -1,-12 7,-11 3,1 5,1 7,3 -2,3 -6,7 -9,9 0,5 2,6 -1,10 -2,-1 -5,-2 -7,-4zm358 -22c0,-8 12,-9 12,-2l0 10c1,1 4,2 6,3 0,6 -4,12 -9,13 -4,-10 2,-10 2,-13 0,-2 -4,0 -7,-1 0,0 -4,-7 -4,-10zm-20 -1c0,-2 4,-8 5,-9 4,-1 10,0 12,2 -1,4 -11,11 -17,7zm23 -22c2,-3 3,-2 5,-6 8,-1 10,7 6,11 -4,3 -10,1 -11,-5zm-339 15c-6,10 -17,-5 -19,-7 -3,-1 -11,3 -6,-6 5,-10 9,-9 21,-7 3,0 13,-2 14,2 3,10 -17,4 -23,8 1,6 11,8 13,10zm358 -28c0,-2 1,-3 2,-5 6,2 5,15 -1,15 -1,-3 -1,-6 -1,-10zm-23 -3c4,0 6,0 6,4 0,4 0,4 -7,5 -3,1 -7,3 -9,3 -1,-3 -1,-5 -2,-8 -2,-6 4,-5 12,-4zm-27 -1c-2,-1 -3,0 -4,-2 6,-2 13,0 16,5 -2,3 -5,8 -8,10l-6 -5c2,-4 4,-2 2,-8zm-310 -2c3,-1 7,-3 10,-3 6,-1 6,10 -7,9 -5,0 -4,-2 -3,-6zm36 4c-2,-1 -7,-2 -7,-4 -2,-7 8,-10 9,-4 1,5 -1,5 -2,8zm373 -12c7,0 4,9 3,14 -2,7 -3,13 -9,8 -4,-3 -9,-6 -6,-13 4,-8 3,-7 12,-9zm-227 16c-2,-1 -1,-2 -3,-4 -2,-2 -4,-2 -6,-2 -3,0 -5,-5 -5,-7 0,-4 3,-5 6,-7 2,-2 5,-6 9,-6 1,3 1,2 1,6 0,3 0,5 0,8 0,4 0,10 -2,12zm165 -9c-1,-3 -3,-8 0,-13 6,-1 7,1 8,6 0,5 -3,6 -8,7zm182 -19l0 1 -6 0c0,-3 3,-1 6,-1zm-167 9c-2,-4 -2,-5 -2,-11 0,-11 11,-1 9,5 -1,3 -4,5 -7,6zm-365 -8c3,-5 7,-4 14,-4 3,5 1,4 -3,7 -2,2 -4,4 -7,5 -2,-3 -3,-4 -4,-8zm524 -5c-2,2 -12,1 -15,1 -4,-1 -3,-1 -4,-1 1,-2 1,-2 4,-2 4,0 12,-1 15,2zm-22 -5c0,-1 0,1 0,0zm-473 5c-2,0 -11,-2 -12,-3 -2,-4 4,-5 6,-7 2,1 5,3 7,5 0,1 0,4 -1,5zm632 -6c-2,-6 0,-7 6,-6 3,1 7,1 7,6 1,3 -4,3 -6,6 -3,-3 -6,-3 -7,-6zm-311 -11c2,-2 6,1 7,2 3,6 4,11 -1,15 -2,-1 -4,-3 -6,-4 -2,-1 -3,-4 -5,-6l5 -7zm21 5c-8,1 -7,-1 -9,-5 -1,-2 -3,-1 -3,-4 0,-2 2,-4 3,-5 4,-3 6,2 8,4 3,3 3,6 1,10zm83 -3c-5,2 -7,1 -10,-1 -5,-3 -14,0 -21,-5 -2,-2 -6,-2 -9,-4 6,-5 20,2 22,2 3,1 8,1 10,3 1,2 0,2 3,3 2,1 3,1 5,2zm-444 -9c-2,2 -5,1 -8,2 -9,2 -6,-8 -2,-8 3,-1 6,0 9,0 1,2 1,4 1,6zm-60 -2c-4,-5 2,-9 3,-16 1,-4 5,-11 8,-13 6,-3 13,2 14,6 1,1 1,17 1,20 10,3 5,5 5,14 2,2 3,4 6,5 4,2 4,-1 9,-2 4,-1 15,-5 18,-3 3,4 -8,12 -11,12 -6,1 -6,0 -11,3 -3,2 -5,1 -10,2 -9,3 -9,-3 -14,-8 -8,-10 -20,4 -23,8 -5,5 -2,49 -1,57 1,3 4,20 5,20 5,3 11,-3 15,3 -1,5 -18,14 -22,-6 -1,-5 -3,-14 -3,-19 -2,-11 -8,-17 -4,-36 0,-4 2,-5 3,-8 1,-3 0,-6 1,-9 0,-2 5,-14 6,-15 5,-5 5,-6 13,-8l-2 -12c-4,-2 -2,3 -6,5zm222 23c-2,-4 1,-9 2,-12 2,-5 1,-10 2,-15 2,-4 4,-5 4,-11 1,-7 2,-9 8,-10 3,0 -1,2 1,4 2,2 1,2 2,3 1,2 3,10 3,11l-12 8c0,1 3,4 4,5 0,2 -5,10 -6,11 -2,1 -7,7 -8,6zm181 -36c1,-3 -1,-8 4,-8 5,0 10,1 10,7 1,1 0,4 -1,5 -2,2 -4,1 -6,1 -1,4 2,9 -11,7 -1,-2 -1,-5 -1,-8l5 -4zm-6 -21c1,1 2,3 2,4 2,2 2,0 3,2 -2,4 -3,7 -7,7 -1,-2 -2,-5 -4,-7 -1,-2 -4,-4 -1,-7 1,-2 6,0 7,1zm14 3c-2,2 -2,0 -2,0 -2,1 0,1 -1,0 -1,0 -2,0 -3,0 -3,-5 -3,-5 -3,-12 5,0 4,1 5,1 1,2 7,8 4,11zm-86 -14c0,-7 6,-4 9,-2 6,3 3,-2 10,-2 6,0 7,4 5,8 -2,5 -4,6 -6,8 4,3 4,1 7,-1 1,-1 4,-1 7,-3 2,-2 12,-5 16,-5 4,0 7,1 10,4 0,10 -11,7 -17,10 -3,2 -17,9 -18,10 2,3 7,2 11,2 5,0 10,1 13,1 2,-3 2,-5 6,-5 5,0 8,-1 11,2 0,2 -1,6 -2,8l-15 -1c-3,5 -8,6 -13,9l-15 7 3 7c3,-3 4,-6 11,-4 4,0 9,2 12,-1 1,-2 5,-6 9,-7 2,0 11,0 12,2 7,5 -5,13 -9,14 -7,3 -17,0 -25,4 -3,15 33,3 39,11 0,0 -3,11 -7,12 -8,1 -9,-5 -15,-5 -8,1 -9,4 -16,5 -3,0 -6,0 -8,2 -2,2 -3,2 -6,4l2 6 6 -6c6,3 4,6 2,11 -2,7 1,6 0,13 -2,18 -15,8 -18,15 -1,3 2,5 3,7 3,6 0,5 1,10l13 14c0,1 -7,4 -9,6 -6,3 -3,1 -7,7l-10 -2c-2,1 -3,7 -4,9 -5,0 -8,-6 -11,-9 -1,-2 -9,-9 -6,-12l9 -2c1,1 2,7 3,9 5,1 11,0 7,-7 -2,-4 -2,1 -9,-10l7 -4c-2,-2 -4,-1 -6,-3 -3,-2 0,-4 -3,-6 -2,0 -5,5 -8,7 -19,19 -22,1 -28,17 3,1 3,2 8,2 6,0 4,2 7,4 2,2 4,0 7,3 2,2 4,4 5,5 -1,1 -8,6 -10,7 -6,3 -4,5 -12,5 -8,0 -8,-3 -13,-6 -6,-3 -7,2 -11,3 -4,-4 -4,-19 -1,-24l12 1c-2,-2 -2,0 -3,-2 -2,-2 0,-2 -2,-4 0,-1 -5,-4 -6,-4 -2,-2 -11,-9 -12,-11l6 -4c-1,-3 0,-5 -3,-7 -4,-3 -2,-2 -4,-6 -4,-6 -5,-6 -5,-16l2 -38c1,-10 4,-16 4,-24 0,-3 -1,-7 -1,-7 2,-3 3,0 5,-4 2,-7 1,-9 10,-18 5,-6 11,-12 21,-15 15,-3 15,2 24,10 3,3 14,18 18,18 15,0 1,-18 1,-21l0 -11zm57 -3c3,-5 0,-3 5,-8 3,-3 1,-6 7,-5 7,2 2,7 1,8 -1,2 -2,6 -4,9 -3,0 -7,-2 -9,-4zm-21 -2c-3,-7 -3,-8 0,-9 3,0 10,-1 12,0 3,1 2,2 1,4 -1,4 -3,7 -13,5zm353 -39c1,7 2,10 -1,17 -2,7 -2,12 -3,17 -2,6 -9,5 -16,5 -5,0 -15,1 -19,0 -7,-1 0,-10 -12,-4 -7,4 -8,4 -17,4 -14,0 -24,-1 -37,-3 -3,-1 -12,-6 -14,-8 -2,-2 -2,-13 0,-16 6,-8 1,-22 21,-17 7,1 8,4 12,9 2,2 14,2 18,2 8,0 30,2 35,6 -1,2 -9,10 -3,16 7,3 5,-15 11,-20 4,-4 13,-5 18,-6 3,-1 5,-2 7,-2zm-353 7c4,-3 13,-2 17,-1 0,4 -6,5 -9,7 -7,4 -3,5 -6,9 -1,3 -8,3 -12,2 -2,-1 -7,-6 -5,-8 2,-1 7,-1 9,-1 4,0 5,-2 8,-2 -1,-2 -3,-3 -2,-6zm-92 16c-12,-11 -9,-10 1,-20 3,-2 9,-5 12,-7 7,-3 10,0 11,6 9,-1 4,-1 9,5 4,3 3,5 5,8 5,-1 2,-6 7,-10 2,-1 4,-7 9,-5 5,5 -2,8 -3,12 -1,9 6,6 9,9 4,5 -12,21 -16,23 -19,6 -14,-8 -25,-12 -3,3 -2,4 -7,4 -4,0 -4,2 -7,4 -12,-6 6,-14 2,-19 -3,-3 -5,1 -7,2zm282 -15c-1,-5 0,-7 5,-8 2,-1 10,-3 11,-3 1,2 2,4 1,6 0,1 -6,5 -7,6 -2,1 -8,0 -10,-1zm169 -10c-4,1 -5,-1 -8,-2 -4,-1 -4,-1 -7,-3l0 -4c3,-1 7,1 10,2 2,1 1,1 3,3 0,2 1,2 2,4zm-62 -15c1,-2 3,-3 4,-4 4,-4 9,0 13,1 3,1 4,1 6,3 -2,2 -3,2 -6,2 -4,0 -14,0 -17,-2zm-205 -5c-3,-4 3,-6 6,-7 12,0 73,-1 80,2 0,0 8,4 9,5 -2,2 -41,2 -48,2 -8,0 -44,2 -47,-2zm117 10c0,-1 6,-9 7,-10 6,-7 2,-4 13,-6l32 -1c8,0 5,0 14,1 -1,5 -39,5 -45,11l1 6c-4,2 -18,2 -22,-1zm21 -21c-2,-2 -5,-2 -6,-5 -2,-2 -2,-8 1,-8 0,-1 7,2 9,2 6,1 5,0 10,2 -1,3 -4,3 -8,4 -3,1 -4,3 -6,5zm66 0c-1,-1 -2,-1 -4,-1 -2,-1 -3,-3 -5,-4 -3,-2 -5,-1 -5,-4 0,-4 0,-6 4,-6 9,0 14,14 13,17 -3,0 -1,-1 -3,-2zm33 -12c1,-9 -7,-7 -7,-11 0,0 4,-9 8,-9 8,0 13,32 8,34 -1,0 -4,-2 -8,-4 -4,-1 -6,-3 -5,-8l4 -2zm-35 -20c-3,0 -7,0 -9,-1 0,-1 2,-1 3,-1 9,0 8,-1 15,1 -2,2 -6,2 -9,1zm-212 10c0,-4 3,-4 4,-9 1,-5 0,-5 2,-10 4,1 5,1 8,3 0,9 -4,5 -5,10 0,1 -1,5 0,7 1,2 2,2 5,2 1,-3 0,-3 2,-5 4,0 1,7 -6,7 -6,0 -2,-1 -10,-5zm199 -15c-3,3 -12,1 -16,-1 3,-1 13,-1 16,1zm-77 35l14 -58c1,-6 6,-4 5,2l-15 58c-2,6 -5,2 -4,-2zm-95 -53c3,6 -8,4 -4,13 1,1 11,7 13,5 7,-5 -3,-16 -4,-20 7,-5 9,0 12,2 10,7 7,36 -3,39 -7,2 -11,-2 -13,-5 -2,-2 -3,-2 -4,-5 -1,-2 -2,-4 -3,-6 -3,-8 -5,-23 6,-23zm189 -13c4,1 9,5 10,5 3,0 6,-3 13,0 2,0 7,5 8,6 -3,3 -8,4 -12,2 -7,-2 -5,-5 -9,-6 -3,1 -5,13 -10,9l-1 -5 -62 -10c0,-6 1,-7 8,-7 5,0 10,0 15,0 9,1 16,4 26,5 5,0 10,0 14,1zm-219 -15c2,-1 14,1 12,11 -1,2 -3,2 -4,4 -2,1 -3,4 -5,2 0,0 -8,-15 -3,-17z"/>
     </g>
    </g>
    <g>
     <path class="fil2" d="M1235 909c0,0 1,-1 1,-1 4,-3 10,-5 15,-5 4,1 8,2 11,4 2,2 4,5 6,8 1,2 2,4 2,7 0,2 1,4 0,6 0,2 0,3 0,4 0,1 -1,2 -1,3 -1,5 -3,9 -5,14 -2,4 -3,8 -5,12 -2,5 -3,9 -5,13 -1,2 -2,4 -2,6 1,-1 3,-1 4,-2 1,0 2,0 3,-1 0,0 0,0 1,0 1,0 2,-1 3,-1 0,0 0,0 0,0 1,0 3,-1 5,-2 2,-1 5,-2 8,-2 0,-1 1,-1 1,-1 1,0 1,0 2,0 2,-1 4,-1 6,-1 3,0 6,1 9,3 2,2 4,4 6,7 1,2 2,4 2,6 0,2 1,3 0,5 0,2 0,4 -1,6 0,1 0,2 -1,3 0,2 -1,2 -2,3 -1,2 -3,4 -5,6 -2,1 -3,2 -5,3 0,0 0,0 0,0 -2,0 -3,1 -4,1 -1,1 -2,1 -3,1 -1,1 -2,1 -3,1 -1,0 -2,1 -4,1 -1,1 -3,1 -4,2 -2,0 -3,0 -4,1 -1,0 -3,1 -4,1 0,0 -1,0 -2,1 -2,0 -4,1 -6,1 -3,1 -5,2 -8,3 -2,0 -5,1 -7,1 -3,1 -6,1 -9,1 -3,0 -6,0 -8,-1 -2,-1 -4,-2 -6,-3 0,-1 0,-1 -1,-1 -1,-1 -2,-2 -3,-3 -1,0 -1,-1 -1,-1 -4,-2 -7,-6 -8,-10 0,0 0,0 0,-1 0,0 -1,-1 -1,-1 -1,1 -3,2 -4,3 -3,2 -5,3 -8,4 -2,1 -5,2 -7,3 -2,1 -5,2 -7,3 -2,0 -4,1 -6,1 -5,2 -10,3 -15,3 -4,1 -8,1 -12,1 -6,0 -12,-2 -16,-6 -6,-4 -9,-11 -9,-18 1,-3 1,-6 2,-9 2,-6 4,-12 7,-18 0,-2 1,-4 2,-6 -2,3 -4,6 -6,9 -2,3 -4,7 -7,10 -2,3 -5,6 -7,10 -4,5 -9,9 -13,14 -1,1 -2,2 -3,3 -1,1 -3,2 -4,3 -2,2 -4,3 -7,4 -2,1 -5,1 -8,1 -5,0 -9,-2 -12,-4 -3,-1 -5,-3 -7,-6 -2,-2 -3,-4 -5,-7 0,-1 -1,-3 -2,-4 -1,-3 -2,-5 -2,-8 -1,-3 -1,-5 -2,-8 0,-2 0,-5 0,-7 0,-3 0,-5 0,-8 0,0 0,0 0,0 0,0 0,0 -1,1 0,0 0,0 0,0l-2 9c0,0 0,0 0,1 -1,0 -1,1 -1,1 0,1 -1,2 -1,3 0,1 -1,3 -1,4 0,0 0,0 -1,0 0,1 -1,3 -1,4 -1,1 -1,3 -1,3 -1,1 -1,2 -1,2 -1,1 -1,2 -1,3 -1,3 -2,5 -4,7 -2,3 -4,5 -7,7 -4,2 -8,3 -12,3 -3,0 -6,-1 -9,-2 0,0 0,-1 0,-1 -2,-1 -5,-3 -6,-5 -2,-2 -3,-5 -4,-7 -1,-2 -1,-5 -1,-7 0,-2 1,-5 2,-7 0,-1 1,-3 1,-5 1,-1 2,-3 3,-5 0,0 0,0 0,-1 -2,1 -4,1 -6,2 -3,0 -5,1 -8,1 0,1 -1,1 -1,2 0,1 -1,3 -1,4 0,0 0,1 0,1 0,0 0,0 0,0 -1,1 -1,2 -1,3 0,0 0,0 0,1 0,1 0,2 -1,3 0,2 0,3 0,4 -1,3 -2,5 -3,7 -1,2 -3,4 -4,5 -2,2 -4,3 -6,4 -3,1 -6,1 -9,1 -5,0 -9,-2 -13,-5 0,0 -1,1 -2,1 -3,2 -6,2 -10,2 -5,0 -11,-2 -15,-7 -2,-2 -3,-5 -5,-8 -1,-2 -2,-4 -3,-7 0,-1 -1,-3 -2,-5 -1,-2 -3,-4 -4,-5 -1,-2 -2,-3 -4,-4 -1,-1 -2,-2 -3,-2 0,0 -1,0 -1,0l-1 0c0,0 0,0 0,0 0,0 0,0 0,0l-1 3c0,1 -1,2 -1,3 0,1 -1,2 -1,4 -1,1 -1,3 -1,4 -1,1 -1,3 -2,4 0,1 0,2 -1,3 0,1 0,1 0,2 -1,2 -1,3 -2,4 -2,3 -4,6 -7,8 -3,2 -7,3 -12,3 -6,0 -12,-3 -16,-9 -2,-4 -3,-8 -3,-12 0,-1 0,-3 0,-4 0,-1 0,-2 1,-3 2,-10 5,-20 8,-30 3,-10 6,-20 8,-29 0,0 0,0 0,-1 0,0 -1,0 -2,0 -1,0 -2,0 -4,0 -4,0 -8,0 -11,0 0,0 0,0 0,0 -1,1 -1,3 -1,4 -1,2 -2,5 -2,7 -1,2 -2,5 -3,7 -1,3 -2,7 -3,10 -1,5 -2,10 -3,14l-4 13c0,2 -1,5 -1,7 -1,2 -1,4 -1,6 0,1 0,1 0,2 -2,5 -5,9 -10,11 -3,2 -7,3 -11,3 -4,0 -8,-1 -11,-3 -3,-2 -5,-4 -6,-7 -2,-2 -3,-5 -3,-7 -1,-4 -1,-7 0,-10 2,-7 4,-15 6,-22 2,-7 4,-14 6,-20 -1,0 -2,0 -2,1 0,0 -1,0 -1,0 -1,0 -3,1 -4,1 -2,0 -3,0 -5,0 -5,0 -10,-2 -14,-6 -4,-4 -6,-9 -6,-15 0,-2 1,-4 1,-6 1,-2 2,-5 3,-7 2,-2 4,-3 6,-5 1,-1 2,-2 4,-2 12,-6 24,-11 37,-14 12,-3 25,-5 38,-5 1,0 2,1 3,1 2,0 3,0 5,0 2,0 3,0 5,0 2,1 3,1 5,2 0,0 0,0 0,0 2,0 3,1 4,1 3,-2 7,-3 12,-3 2,0 4,1 5,1 1,0 1,0 1,0 1,0 2,1 4,1 0,0 0,0 0,0 0,0 1,1 2,1 0,0 0,0 1,0 1,0 2,-1 3,-1 1,0 3,0 4,0 2,0 4,0 6,0 2,0 4,0 6,0 2,1 4,1 7,1 2,1 5,2 7,2 3,1 6,3 8,5 3,1 6,4 8,6 3,4 4,7 5,11 1,2 1,4 2,5 0,2 0,3 0,5 0,5 -2,10 -4,14 -3,5 -6,9 -10,12 -3,3 -6,6 -9,8 1,1 2,3 3,5 1,1 3,3 4,4 1,-2 2,-4 3,-6 2,-4 4,-7 5,-10 2,-3 4,-6 6,-9 3,-4 6,-8 8,-12 4,-4 7,-8 10,-12 4,-3 8,-7 12,-10 4,-4 9,-7 13,-9 6,-2 12,-4 18,-3 5,0 11,1 16,4 4,2 8,6 11,11 0,1 1,2 2,3 0,-2 1,-4 2,-6 2,-3 4,-5 7,-7 4,-2 8,-3 12,-3 4,1 9,2 12,5 3,2 6,5 7,9 0,0 0,0 0,0 1,3 2,5 2,8 1,2 1,5 1,7 -1,2 -1,5 -1,7 -1,3 -1,6 -1,10 -1,4 -1,9 -2,13 0,2 0,4 0,5 2,-3 5,-7 7,-11 2,-3 4,-7 6,-11 2,-3 3,-6 5,-9 1,-2 2,-5 3,-7 1,-2 2,-4 3,-6 1,-2 2,-4 3,-5 0,-2 1,-3 1,-4 2,-3 4,-5 7,-7 4,-3 10,-4 15,-4 5,0 10,2 13,6 2,2 4,5 4,7 2,-1 3,-2 4,-3 1,-1 1,-1 1,-1 3,-2 8,-4 12,-3 4,0 9,1 12,3 0,0 0,1 1,1 0,0 0,0 0,0 3,-1 6,-2 9,-2 3,-1 5,-1 8,-1 2,-1 5,-1 7,-1 3,0 5,0 8,0 2,0 5,1 7,1 0,0 0,0 0,0 3,1 5,2 7,3 3,1 5,3 6,5zm-13 30c-1,1 -3,1 -5,1 -1,0 -2,0 -3,0 0,0 -1,0 -1,0 1,1 2,2 3,3 1,2 2,3 3,5 1,-2 2,-5 3,-8 0,0 0,0 0,-1zm-13 35c-1,1 -2,1 -3,2 -1,0 -1,0 -1,0 0,0 0,0 0,0 1,1 2,1 2,2l2 -4zm-754 -74c1,-2 2,-3 3,-5 4,-5 10,-7 16,-7 2,0 4,0 6,0 0,0 0,0 0,0 2,0 3,1 4,1 0,0 0,0 1,0 0,0 1,0 1,0 1,0 1,0 1,0 1,0 2,0 4,0 1,0 2,0 4,0 2,-1 4,-1 6,-1 2,0 3,0 5,0 3,0 5,0 7,1 3,0 5,1 8,1 3,1 6,2 9,4 2,2 5,4 7,6 3,3 5,7 6,11 1,1 1,3 2,5 0,1 0,3 0,4 0,5 -1,11 -3,15 -2,5 -5,9 -9,13 -2,3 -6,5 -9,8 1,1 3,3 4,4 2,3 5,6 7,10 2,4 5,8 7,12 1,3 2,6 2,10 1,3 0,6 -1,8 -1,3 -2,5 -4,7 0,0 0,0 0,0 -2,2 -4,4 -6,5 -3,2 -6,3 -10,3 -6,0 -11,-2 -15,-6 -2,-2 -4,-5 -6,-8 -1,-2 -2,-4 -3,-6 -1,-2 -2,-4 -3,-5 -1,-2 -3,-4 -4,-6 -1,-1 -2,-2 -4,-3 -1,-1 -2,-2 -3,-2 -1,0 -1,0 -1,0l-1 0c0,0 0,0 -1,0 0,0 0,0 0,0l0 3c-1,1 -1,2 -1,3 0,1 -1,3 -1,4 0,1 -1,3 -1,4 0,2 -1,3 -1,4 0,2 -1,3 -1,4 0,0 0,1 0,1 -1,2 -1,3 -2,5 -1,3 -4,6 -6,8 -4,2 -8,4 -12,4 -7,0 -13,-3 -17,-8 -2,-4 -4,-8 -4,-12 0,-2 0,-3 0,-4 1,-2 1,-3 1,-4 0,-2 1,-5 2,-7 -1,0 -1,0 -1,0 -3,6 -7,11 -12,16 -3,2 -5,5 -8,7 -3,2 -6,5 -9,7 -3,2 -7,4 -10,5 -5,2 -9,3 -13,3 -6,0 -11,0 -16,-2 -5,-1 -10,-4 -13,-8 -4,-3 -7,-7 -9,-12 -1,-2 -2,-5 -2,-8 -1,1 -1,2 -2,3 -3,4 -7,9 -11,13 -4,4 -8,7 -13,11 -5,3 -10,5 -15,7 -6,2 -12,3 -17,3 -6,1 -12,0 -17,-1 -5,-2 -10,-5 -14,-8 -4,-4 -8,-9 -10,-13 -2,-5 -3,-11 -4,-16 0,-2 0,-5 0,-7 1,-2 1,-5 1,-7 1,-4 2,-9 4,-13 1,-4 3,-8 5,-12 2,-4 4,-7 6,-10 -1,0 -2,-1 -3,-1 -1,0 -3,0 -4,0 -4,1 -8,1 -12,2 0,1 0,2 0,4 -1,2 -1,4 -2,7 0,2 -1,4 -1,7 -1,3 -2,7 -3,10 -1,5 -1,10 -2,15l-2 13c-1,2 -1,4 -1,7 -1,2 -1,4 -1,6 0,0 0,1 0,1 -1,6 -4,10 -8,13 -4,2 -8,3 -12,4 -4,0 -7,-1 -11,-3 -2,-1 -5,-4 -7,-6 -1,-2 -2,-5 -3,-7 -1,-3 -1,-7 0,-10 1,-7 2,-15 4,-22 1,-7 2,-14 4,-21 -1,0 -2,1 -2,1 0,0 0,0 -1,0 -1,1 -2,1 -4,2 -1,0 -3,0 -4,0 -6,1 -11,-1 -15,-5 -4,-3 -7,-8 -7,-14 0,-2 0,-4 0,-6 1,-3 2,-5 3,-7 1,-2 3,-4 5,-6 1,-1 3,-2 4,-3 11,-7 23,-12 36,-16 12,-4 24,-7 37,-8 1,0 3,0 4,0 1,0 3,0 4,0 2,0 4,0 5,0 2,0 4,1 6,1 0,0 0,0 0,0 4,1 8,3 11,6 2,3 3,5 4,8 2,-1 4,-3 6,-5 0,0 0,0 0,0 3,-2 6,-4 9,-5 2,-1 4,-1 7,-1 3,0 6,0 9,1 0,0 1,0 1,0 1,0 2,0 2,-1 2,0 4,0 5,0 4,0 8,0 12,1 3,2 6,3 9,6 6,4 10,10 13,16 1,2 2,4 2,7 0,0 0,0 0,-1l1 -2c0,-1 0,-1 0,-2 0,-1 0,-2 0,-3 0,-2 1,-4 1,-6 0,-2 1,-5 2,-7 1,-3 3,-5 5,-7 4,-4 8,-5 13,-5 3,-1 7,0 10,1 0,0 0,0 0,0 3,2 6,4 8,6 2,3 3,5 4,8 1,2 1,5 1,7 0,1 0,3 0,5 0,1 0,3 0,4 -1,3 -2,6 -3,9 -1,3 -2,6 -3,9 -1,3 -2,7 -3,10 -1,3 -2,7 -3,10 0,2 -1,4 -1,7 0,0 0,1 0,2 2,-1 4,-3 6,-5 2,-1 4,-4 6,-6 2,-3 4,-6 5,-9 2,-3 4,-6 5,-9 1,-4 3,-7 4,-11 1,-3 2,-7 2,-10 1,-1 1,-3 1,-4 0,-1 0,-2 0,-3 0,-1 0,-3 0,-4 0,-2 0,-4 0,-6 0,-5 1,-9 3,-12 4,-6 10,-9 16,-10 6,0 11,2 15,6 1,1 3,3 4,5zm240 71c8,3 13,11 13,20 0,6 -2,11 -6,15 -4,4 -9,6 -14,6 -11,0 -20,-4 -29,-9 -3,2 -7,4 -11,5 -7,3 -15,5 -22,5 -11,0 -20,-4 -28,-10 -9,-7 -14,-17 -15,-29 0,-10 5,-20 12,-27 5,-5 10,-9 16,-13 0,-2 0,-4 0,-7 0,-11 5,-21 14,-29 9,-8 20,-12 32,-12 9,0 16,3 23,8 7,6 12,14 12,24 0,5 -1,9 -3,14 2,0 5,2 7,3 5,4 8,10 8,16 0,4 -1,8 -3,11 -2,3 -4,6 -6,9zm-410 17c1,0 2,0 3,0 1,0 3,0 5,-1 2,-1 3,-2 5,-3 2,-2 4,-3 6,-5 2,-2 4,-5 6,-7 1,-3 3,-6 4,-9 1,-3 2,-6 3,-9 0,-1 0,-2 0,-3 0,-1 0,-2 0,-3 0,0 0,0 0,0 0,0 -1,0 -1,0 -3,1 -5,2 -8,2 -1,0 -2,0 -3,0 -2,2 -4,5 -6,7 -2,3 -4,7 -6,10 -2,4 -4,7 -5,11 -1,2 -2,5 -3,8 0,0 0,1 0,2z"/>
    </g>
    <g>
     <path class="fil10" d="M201 1007c2,-7 3,-15 4,-22 2,-8 3,-15 5,-23 0,-3 1,-6 1,-8 1,-3 1,-5 1,-7 1,-2 1,-4 1,-5 0,-2 0,-4 0,-5 0,0 0,-1 0,-1 0,0 0,-1 0,-1 -1,0 -2,0 -3,1 -2,0 -3,1 -5,2 -2,1 -4,2 -6,3 -3,1 -5,3 -6,4 -2,1 -3,1 -4,2 -1,1 -2,1 -3,1 0,1 -1,1 -2,1 0,0 -1,0 -2,0 -1,0 -2,0 -3,-1 -1,-1 -2,-2 -2,-4 0,-1 0,-2 0,-2 0,-1 1,-2 1,-2 0,-1 1,-2 1,-2 1,-1 2,-1 3,-2 10,-6 21,-11 32,-15 12,-3 23,-6 34,-7 1,0 2,0 3,0 2,0 3,0 4,0 2,0 3,0 4,0 1,0 3,1 4,1 1,0 2,1 2,2 1,0 2,1 2,3 0,0 0,1 0,2 0,1 -1,2 -1,2 0,1 -1,1 -1,2 -1,0 -2,1 -3,1 -1,0 -3,-1 -5,-1 -2,0 -4,0 -6,0 -4,1 -8,1 -13,2 -4,0 -8,1 -12,2 0,0 0,1 0,1 0,0 0,1 0,1 0,3 0,5 0,7 -1,1 -1,3 -1,5 0,2 -1,4 -1,6 -1,2 -1,5 -2,8 -1,3 -2,6 -2,10 -1,4 -2,9 -3,15l-2 13c-1,3 -1,6 -1,8 -1,2 -1,5 -1,7 0,1 -1,2 -2,2 -1,1 -2,1 -4,2 -1,0 -2,-1 -2,-1 -1,0 -2,-1 -2,-2 -1,-1 -1,-1 -2,-2 0,-1 0,-2 0,-3zm58 -27c1,-4 2,-7 3,-11 1,-3 3,-7 5,-10 1,-4 3,-7 6,-11 2,-3 4,-7 7,-10 3,-3 5,-6 8,-9 3,-3 6,-6 8,-8 2,-1 3,-2 4,-2 1,-1 3,-1 4,-1 1,0 3,0 4,0 1,1 2,1 3,2 0,1 1,1 1,1 1,1 1,1 1,1 0,0 1,0 1,-1 0,0 0,0 0,0 0,-1 0,-1 1,-1 0,-1 0,-1 0,-1 1,0 2,-1 3,-1 1,0 2,0 3,0 2,0 4,0 6,1 2,0 3,1 5,2 3,3 6,7 8,11 2,4 3,9 3,14 1,4 0,9 -1,14 -1,5 -2,9 -4,14 -2,4 -4,8 -7,12 -2,4 -5,8 -8,11 -4,3 -7,6 -11,9 -4,2 -8,4 -12,6 -5,1 -9,2 -13,2 -5,1 -8,0 -12,-1 -3,-1 -6,-3 -8,-5 -3,-2 -5,-5 -6,-8 -1,-3 -2,-6 -2,-10 -1,-2 -1,-3 0,-5 0,-2 0,-4 0,-5zm11 3c0,3 0,5 0,6 0,3 1,5 2,7 1,1 2,3 4,4 1,1 3,2 5,3 3,0 5,0 8,0 3,0 6,-1 9,-2 3,-1 6,-3 9,-5 3,-2 5,-4 8,-7 3,-2 5,-6 7,-9 3,-3 4,-7 6,-11 2,-4 3,-8 4,-12 0,-2 0,-4 0,-5 1,-2 1,-4 0,-5 0,-3 0,-5 -1,-8 -1,-2 -2,-4 -3,-6 -1,-1 -3,-3 -5,-4 -3,0 -5,-1 -8,-1 -1,0 -1,1 -1,1 -1,0 -1,1 -1,1 0,1 0,1 -1,2 0,1 0,1 -1,1 0,1 -1,1 -1,2 -1,0 -2,0 -3,0 -1,0 -1,0 -2,0 0,-1 -1,-1 -2,-2 0,0 0,0 0,0 0,0 -1,0 -1,0 0,0 -1,0 -1,0 -1,1 -2,1 -2,2 -1,0 -2,1 -2,1 -1,1 -1,1 -2,2 -2,3 -5,6 -8,10 -3,4 -5,8 -7,12 -3,4 -5,8 -6,12 -2,4 -3,8 -4,11zm91 -8c1,-5 2,-9 3,-12 0,-4 1,-7 2,-10 1,-3 2,-6 3,-9 1,-3 2,-6 2,-9l1 -3c0,-1 0,-2 0,-3 0,-1 0,-2 0,-3 0,-2 1,-3 1,-4 0,-2 0,-3 1,-4 0,-1 1,-2 2,-2 0,-1 1,-1 3,-1 1,0 2,0 3,0 1,1 2,1 2,2 1,1 1,2 2,3 0,1 0,2 0,3 0,1 0,2 0,2 0,1 0,2 0,3 0,2 -1,4 -2,7 -1,3 -2,6 -3,9 -1,3 -3,7 -4,10 -1,4 -2,8 -3,12 0,3 -1,5 -1,8 0,3 0,5 0,7 0,2 0,4 0,5 1,2 1,3 2,5 1,1 2,2 4,2 1,1 3,1 5,1 1,0 3,0 5,-1 1,0 3,-1 6,-2 3,-2 6,-4 9,-6 3,-3 5,-6 8,-9 2,-3 5,-7 7,-10 2,-4 3,-8 5,-12 2,-4 3,-8 4,-12 1,-4 2,-8 3,-11 0,-2 1,-4 1,-5 0,-1 0,-3 0,-4 0,-2 0,-3 0,-5 0,-2 0,-4 0,-6 0,-2 1,-3 1,-5 1,-1 2,-2 4,-2 1,0 2,1 3,1 1,1 2,2 2,4 1,1 1,2 2,4 0,1 0,2 0,3 0,3 0,5 0,8 0,2 -1,5 -1,7 -1,5 -3,10 -4,15 -2,5 -3,10 -6,15 -2,5 -4,10 -7,15 -3,5 -7,9 -11,13 -2,2 -4,4 -7,6 -2,2 -4,4 -7,6 -3,2 -5,3 -8,4 -3,1 -5,2 -8,2 -4,0 -8,0 -11,-1 -3,-1 -5,-3 -7,-5 -2,-1 -4,-4 -5,-6 -1,-3 -2,-6 -2,-10 0,-1 0,-3 0,-5 1,-2 1,-4 1,-5zm91 19c2,-10 4,-20 6,-30 3,-9 5,-19 7,-29 0,-2 1,-3 1,-4 0,-1 0,-3 1,-4 0,-1 0,-2 0,-3 0,-2 0,-3 0,-4 0,-1 0,-2 0,-3 0,-1 0,-2 0,-3 0,-1 0,-2 0,-3 0,-3 1,-5 2,-6 2,-1 3,-2 6,-2 1,0 2,0 3,0 1,0 2,0 3,1 1,0 2,0 3,0 1,0 2,1 3,1 1,-1 2,-1 2,-1 1,0 2,0 3,0 1,0 3,0 4,0 2,-1 3,-1 6,-1 1,0 2,0 4,0 2,0 3,0 5,1 2,0 4,0 6,1 2,0 3,1 5,2 2,1 3,2 4,3 2,2 2,4 3,6 1,1 1,2 1,2 0,1 0,2 0,3 0,2 0,5 -2,8 -1,3 -3,6 -5,8 -3,3 -6,5 -9,8 -2,1 -3,2 -5,3 -2,1 -3,2 -5,3 -2,1 -3,2 -5,2 -1,1 -2,2 -2,2 1,1 3,2 4,2 2,1 3,2 5,3 2,1 3,2 5,4 2,2 3,4 5,6 2,2 4,5 6,8 2,3 4,7 6,11 1,1 1,2 1,3 0,1 0,2 0,3 0,1 -1,2 -2,3 0,0 -1,1 -2,1 -1,1 -2,1 -3,1 -1,0 -2,0 -3,-1 -1,-1 -2,-3 -3,-5 -1,-2 -2,-4 -4,-6 -1,-2 -2,-4 -3,-7 -2,-2 -4,-5 -6,-7 -2,-2 -4,-4 -6,-5 -2,-2 -5,-3 -7,-4 -2,-1 -4,-1 -7,-1l-1 0c-1,0 -2,0 -3,0 -1,0 -2,1 -3,1 -2,-1 -3,-1 -3,-2 -1,-1 -1,-3 -2,-4l0 -1 -4 21c0,1 0,1 -1,3 0,1 0,2 -1,3 0,2 0,3 -1,5 0,1 0,3 -1,4 0,1 0,2 -1,3 0,2 0,2 0,3 -1,1 -1,2 -2,3 -1,0 -2,1 -3,1 -2,0 -4,-1 -4,-2 -1,-1 -2,-2 -2,-4 0,-1 0,-1 0,-2 0,-1 1,-1 1,-2zm29 -75c0,1 0,2 -1,4 0,2 -1,4 -1,6 -1,2 -1,4 -2,7 -1,2 -1,5 -2,7 0,2 -1,5 -2,7 0,2 -1,4 -1,6 1,-1 2,-2 4,-3 1,-1 3,-2 5,-3 2,0 4,-1 7,-2 2,-2 5,-3 7,-5 3,-1 6,-3 8,-5 3,-1 5,-3 8,-5 2,-2 3,-4 5,-5 1,-2 2,-4 1,-6 0,-1 0,-3 -1,-3 -2,-1 -3,-2 -5,-2 -1,-1 -3,-1 -5,-1 -2,0 -4,0 -6,0 -3,0 -6,0 -9,1 -4,0 -7,1 -10,2zm148 23c-2,-5 -3,-10 -3,-15 0,-7 3,-13 9,-18 6,-5 13,-8 22,-8 5,0 9,2 13,5 5,3 7,7 7,12 0,5 -3,10 -8,14 -5,5 -13,9 -25,15 4,6 9,13 18,23 7,-7 13,-14 16,-21 1,-2 2,-3 5,-3 1,0 2,0 4,1 1,1 2,3 2,4 0,1 -1,3 -1,4 -1,2 -3,5 -7,9 -3,4 -7,8 -12,13 6,4 12,7 18,7 4,1 6,3 6,7 0,2 0,3 -1,4 -1,1 -3,2 -4,2 -9,0 -18,-4 -28,-12 -5,4 -11,7 -17,9 -6,2 -12,4 -18,4 -6,0 -12,-3 -18,-7 -5,-5 -8,-10 -8,-17 -1,-6 2,-12 7,-17 5,-5 13,-10 23,-15zm11 -4c9,-4 15,-7 18,-11 4,-3 6,-6 6,-9 0,-2 0,-3 -2,-4 -1,-1 -3,-2 -5,-2 -5,0 -10,2 -13,4 -4,3 -6,7 -6,11 0,3 1,7 2,11zm-7 14l0 0c-8,3 -13,7 -17,10 -3,4 -5,8 -5,12 0,4 2,7 5,9 3,2 7,3 10,3 8,0 17,-3 26,-9 -8,-9 -15,-17 -19,-25zm169 34c1,-7 3,-15 5,-22 2,-7 4,-15 6,-22 1,-3 2,-6 3,-8 0,-2 1,-5 1,-7 1,-2 1,-4 1,-5 1,-2 1,-3 1,-5 0,0 0,0 0,-1 0,0 0,0 0,-1 -1,0 -2,0 -3,1 -2,0 -4,1 -6,2 -2,1 -4,1 -6,2 -2,1 -4,2 -6,3 -2,1 -3,2 -4,2 -1,1 -2,1 -3,1 -1,1 -1,1 -2,1 0,0 -1,0 -2,0 -1,0 -2,0 -3,-1 -1,-1 -2,-3 -2,-4 0,-1 0,-2 1,-3 0,-1 0,-1 1,-2 0,0 1,-1 1,-1 1,-1 2,-1 3,-2 11,-6 22,-10 33,-13 12,-2 23,-4 34,-3 1,0 3,0 4,0 1,0 2,0 4,0 1,0 2,0 4,0 1,1 2,1 3,1 1,0 2,1 3,2 0,1 1,2 1,3 0,1 0,2 -1,3 0,0 0,1 0,2 -1,0 -1,1 -2,1 -1,1 -1,1 -2,1 -2,0 -4,-1 -6,-1 -2,0 -4,0 -6,0 -4,0 -8,0 -12,0 -4,0 -8,1 -13,2 0,0 0,0 0,0 0,1 0,1 0,2 0,2 -1,4 -1,6 0,2 -1,4 -1,5 0,2 -1,4 -2,6 0,2 -1,5 -2,8 -1,2 -2,6 -3,10 -1,4 -3,9 -4,15l-3 12c-1,3 -2,6 -2,8 0,2 -1,5 -1,7 0,1 -1,1 -2,2 -1,1 -3,1 -4,1 -1,0 -2,0 -3,-1 0,0 -1,-1 -2,-2 0,0 0,-1 0,-2 -1,-1 -1,-2 0,-3zm59 2c3,-9 6,-19 9,-29 2,-10 5,-20 8,-30 0,-1 1,-2 1,-3 0,-1 0,-3 1,-4 0,-1 0,-2 0,-3 1,-1 1,-3 1,-4 0,-1 0,-2 0,-3 0,-1 -1,-2 -1,-3 1,-1 1,-2 1,-3 1,-2 2,-4 3,-6 1,-1 3,-2 5,-2 1,0 2,1 3,1 1,0 2,0 3,0 1,1 2,1 3,1 1,1 2,1 3,1 1,0 2,0 3,0 1,0 2,0 3,-1 1,0 2,0 4,0 1,0 3,0 5,0 1,0 3,0 4,0 2,1 4,1 6,1 1,0 3,1 5,2 2,0 4,1 5,2 2,1 3,2 4,4 2,1 2,3 3,5 0,1 0,2 1,3 0,1 0,2 0,2 0,3 -1,6 -3,8 -1,3 -3,6 -6,8 -3,3 -6,5 -9,7 -2,1 -3,2 -5,3 -2,1 -3,2 -5,3 -2,1 -4,1 -5,2 -1,1 -2,1 -3,2 2,1 3,1 5,2 1,1 3,2 4,3 2,1 4,3 5,4 2,2 3,4 5,7 2,2 4,5 5,8 2,3 4,7 6,11 1,1 1,2 1,4 0,1 0,1 -1,2 0,1 -1,2 -1,3 -1,1 -2,1 -3,2 0,0 -1,0 -2,0 -2,0 -3,0 -4,-2 -1,-1 -2,-2 -3,-4 -1,-2 -2,-4 -3,-6 -1,-3 -2,-5 -3,-7 -2,-3 -3,-5 -5,-8 -2,-2 -4,-4 -6,-6 -2,-1 -4,-3 -7,-4 -2,-1 -4,-1 -7,-1l-1 0c-1,0 -2,0 -3,0 -1,0 -2,0 -3,0 -2,0 -3,-1 -3,-2 -1,-1 -1,-2 -1,-4l0 -1 -6 21c0,1 0,1 0,3 -1,1 -1,2 -2,3 0,2 0,3 -1,5 0,1 -1,2 -1,4 -1,1 -1,2 -1,3 0,1 -1,2 -1,3 0,1 -1,1 -2,2 -1,1 -2,1 -3,1 -2,0 -4,-1 -4,-2 -1,-1 -1,-2 -1,-4 0,0 0,-1 0,-2 0,0 0,-1 0,-2zm34 -73c0,1 -1,2 -1,4 -1,2 -1,4 -2,6 -1,2 -1,4 -2,6 -1,3 -2,5 -2,8 -1,2 -2,4 -3,6 0,3 -1,5 -2,7 1,-2 3,-3 4,-3 2,-1 4,-2 6,-3 2,0 4,-1 7,-2 2,-1 5,-3 8,-4 2,-1 5,-3 8,-4 3,-2 5,-4 7,-6 3,-1 4,-3 6,-5 1,-1 2,-3 2,-5 0,-1 -1,-3 -2,-4 -1,-1 -2,-1 -4,-2 -2,0 -3,-1 -6,-1 -2,0 -3,0 -5,0 -3,0 -6,0 -10,0 -3,0 -6,1 -9,2z"/>
     <path class="fil10" d="M1011 1002c-1,0 -2,0 -3,-1 0,0 -1,-1 -1,-1 -1,-1 -1,-1 -1,-2 -1,-1 -1,-2 -1,-2 0,-1 1,-2 1,-3 0,-1 1,-3 1,-4 1,-1 2,-3 2,-4 1,-2 2,-4 2,-5 1,-1 2,-3 2,-4 0,-1 1,-2 1,-3 0,-1 0,-1 1,-3 0,-1 0,-2 1,-3 0,-1 0,-3 1,-4 0,-2 1,-3 1,-4 -1,0 -1,0 -2,0 -1,0 -2,0 -3,0 -2,0 -3,0 -4,1 -2,0 -3,0 -5,0 -1,1 -3,1 -4,1 -2,1 -4,1 -5,1 -3,1 -6,1 -8,2 -3,1 -6,1 -9,1 0,0 -1,0 -2,-1 -1,0 -2,-1 -2,-1 -1,1 -2,3 -3,4 -1,2 -2,4 -2,5 -1,2 -2,4 -2,5 -1,2 -1,3 -2,5 0,1 0,2 0,3 -1,1 -1,2 -1,4 0,1 0,2 0,3 -1,1 -1,2 -1,3 0,1 0,1 -1,2 0,1 -1,1 -1,2 -1,0 -1,1 -2,1 -1,0 -2,0 -2,0 -2,0 -3,0 -3,-1 -1,-1 -2,-2 -2,-3 0,-1 -1,-2 -1,-3 0,-1 0,-3 0,-4 0,-2 0,-5 1,-8 1,-3 2,-6 3,-8 1,-3 3,-6 4,-9 2,-3 4,-6 5,-9 2,-3 4,-6 6,-9 2,-4 5,-7 7,-11 3,-3 6,-7 9,-10 4,-4 7,-7 10,-10 4,-2 7,-4 11,-6 3,-2 7,-2 10,-2 4,0 7,1 9,2 3,1 4,3 6,5 1,3 2,5 3,8 0,3 0,6 0,10 0,3 0,6 -1,9 0,3 -1,6 -1,9 -1,3 -1,6 -2,8 -1,3 -2,6 -2,8l-3 9c0,0 0,0 0,1 0,1 -1,2 -1,3 -1,1 -1,2 -2,4 0,1 -1,2 -1,3 -1,2 -1,3 -1,4 -1,1 -1,2 -2,2l0 0c0,1 0,2 -1,4 0,1 0,2 -1,3 -1,1 -2,1 -3,2 -1,1 -2,1 -3,1zm5 -82c-2,0 -4,0 -6,1 -2,1 -4,2 -5,3 -2,1 -4,3 -6,4 -2,2 -4,4 -5,6 -2,1 -3,3 -5,5 -1,2 -3,4 -4,5 0,0 0,1 -1,1 0,0 0,1 0,1 -1,1 -1,1 -1,2 -1,1 -1,1 -1,1l7 1c2,0 5,0 8,-1 3,0 6,0 10,-1 3,0 6,0 8,-1 3,0 5,-1 6,-1 0,0 0,-1 1,-2 0,-1 0,-2 0,-3 0,-2 0,-3 0,-4 1,-1 1,-3 1,-4 0,-1 0,-3 0,-4 0,-2 -1,-3 -1,-4 0,-2 -1,-3 -2,-4 -1,-1 -2,-1 -4,-1zm45 7c0,-1 0,-2 0,-2 0,-1 0,-2 0,-3 0,0 0,-1 -1,-2 0,0 0,-1 0,-2 0,-1 1,-2 1,-3 0,-1 0,-2 1,-3 0,-1 1,-1 2,-2 1,0 2,0 3,0 2,0 3,0 4,1 1,1 2,2 2,3 1,1 1,2 1,4 1,1 1,3 0,4 0,1 0,3 0,6 -1,3 -1,6 -1,10 -1,4 -1,8 -2,14 0,5 -1,11 -1,17 0,2 0,4 0,7 0,2 1,5 1,7 0,2 1,4 2,6 1,2 2,3 4,3 4,-3 8,-7 11,-11 4,-5 7,-9 10,-13 3,-5 5,-9 8,-13 2,-4 4,-8 6,-12 2,-3 4,-6 5,-9 1,-3 3,-5 4,-7 1,-3 2,-5 3,-7 1,-2 2,-4 3,-6 0,0 0,-1 0,-2 1,-1 2,-1 2,-2 2,-1 3,-1 6,-1 1,0 3,1 3,1 1,1 1,2 1,3 0,1 0,1 0,2 0,0 0,1 0,1 -1,3 -3,6 -5,9 -2,4 -3,7 -5,11 -2,4 -4,7 -6,11 -2,4 -4,7 -6,11 -2,3 -4,7 -7,10 -2,3 -4,6 -6,9 -1,2 -4,5 -7,9 -3,4 -7,8 -12,14 -1,1 -2,1 -2,2 -1,1 -2,1 -3,2 -1,1 -2,1 -2,1 -1,1 -3,1 -4,1 -1,0 -3,-1 -4,-2 -1,0 -3,-1 -4,-2 -1,-2 -1,-3 -2,-4 -1,-2 -1,-3 -2,-4 -1,-2 -1,-4 -2,-6 0,-1 -1,-3 -1,-5 0,-3 0,-5 0,-7 0,-2 0,-4 0,-6 0,0 0,-1 0,-2 0,-2 0,-3 0,-5 0,-2 0,-5 1,-7 0,-3 0,-5 0,-8 0,-3 0,-6 1,-9 0,-3 0,-6 0,-8l0 -4zm72 73c1,-1 1,-3 1,-4 2,-6 4,-12 6,-18 3,-5 5,-11 7,-16 2,-6 3,-11 4,-14 2,-4 3,-7 4,-10 1,-3 2,-5 3,-7 0,-2 1,-4 2,-6 1,-1 1,-2 2,-4 1,-1 1,-2 2,-3 1,-1 2,-2 3,-3 1,0 1,0 2,0 2,0 3,0 4,1 1,0 2,1 2,1l0 3c1,0 2,0 3,0 1,0 2,0 3,-1 1,0 2,0 3,0 1,0 2,0 2,-1 3,0 6,-1 8,-1 3,-1 5,-1 7,-1 3,-1 5,-1 7,-1 2,0 4,0 6,0 2,0 4,1 5,1 1,0 2,0 3,1 1,0 1,1 1,1 1,1 1,1 1,2 0,0 -1,1 -1,2 0,0 -1,1 -1,1 -1,1 -2,1 -3,1 -1,1 -2,1 -4,1 0,0 -1,0 -3,0 -1,1 -3,1 -4,1 -2,0 -4,0 -5,0 -2,1 -3,1 -3,1l0 0c0,0 -1,0 -2,0 -1,1 -2,1 -4,1 -1,0 -3,1 -4,1 -2,1 -4,1 -5,1 -2,1 -3,1 -5,1 -1,1 -2,1 -3,1 -3,1 -5,2 -6,4 -2,2 -3,4 -4,6 -1,0 -1,1 -1,2 -1,1 -1,2 -2,3 0,1 -1,2 -1,4 -1,1 -1,2 -2,3 0,2 -1,3 -1,4 0,1 -1,1 -1,2 0,0 0,1 0,1 0,0 0,1 0,1 0,0 0,0 0,0 1,0 2,0 4,-1 2,0 5,-1 8,-1 2,-1 5,-2 9,-3 3,-1 6,-1 9,-2 3,-1 5,-1 8,-2 2,0 4,-1 5,0 1,0 2,0 3,0 0,1 0,2 0,2 0,2 0,3 -2,4 -1,1 -2,2 -4,3 0,0 -1,1 -3,1 -1,0 -3,1 -4,1 -2,1 -4,1 -5,2 -2,0 -3,0 -3,0 -5,2 -8,3 -11,4 -3,1 -5,2 -7,2 -1,1 -3,1 -4,2 -1,0 -1,0 -2,0 -1,1 -2,1 -3,1 -1,0 -2,0 -4,1 0,1 -1,2 -1,4 -1,2 -1,4 -2,5 -1,2 -1,4 -1,6 -1,2 -1,3 -1,3 0,1 0,2 0,2 0,1 1,1 1,1 0,0 0,0 1,0 0,0 0,0 0,0 3,0 5,0 8,0 3,-1 6,-1 9,-2 3,-1 5,-2 7,-3 2,-1 4,-2 6,-3 2,-1 4,-2 6,-2 1,-1 3,-1 5,-1 1,0 1,0 2,0 1,0 1,1 2,1 0,0 0,0 1,1 0,0 0,1 0,1 0,2 -1,3 -2,4 -1,1 -3,2 -4,3 -2,1 -4,2 -6,3 -2,1 -4,2 -6,3 -3,1 -5,2 -7,2 -2,1 -4,1 -6,2 -4,1 -8,2 -11,2 -4,1 -8,1 -11,1 -3,0 -5,-1 -7,-2 -2,-2 -3,-4 -3,-7zm91 -22c2,-6 4,-12 6,-17 3,-6 4,-11 6,-15 2,-5 3,-9 4,-13 1,-3 2,-6 2,-8 1,-2 2,-4 3,-5 2,-1 3,-2 5,-2 1,1 2,1 3,1 0,1 1,2 1,2 1,1 1,2 1,3 0,1 0,2 0,3 0,1 0,2 0,2 0,1 0,1 0,2 -2,4 -3,8 -5,12 -2,4 -3,8 -5,13 -2,4 -3,8 -5,13 -2,4 -4,8 -5,12l-1 5c-1,2 -2,4 -2,6 -1,2 -1,4 -1,5 0,1 0,1 0,2 0,0 1,0 1,0 2,0 4,0 7,0 2,-1 5,-1 7,-2 3,0 6,-1 8,-2 3,-1 5,-2 7,-3 2,0 3,0 3,-1 1,0 2,0 3,-1 2,0 3,-1 5,-1 2,-1 5,-2 9,-3 1,0 1,-1 2,-1 0,0 0,0 1,0 1,0 1,0 2,1 0,0 1,0 1,1 0,0 0,1 0,1 0,1 0,2 0,2 0,1 0,2 0,3 0,0 0,1 -1,1 0,1 -1,2 -2,2 -1,1 -2,2 -3,2 0,0 -1,1 -2,1 -1,0 -2,1 -3,1 0,0 -1,0 -2,1 -2,0 -3,0 -4,1 -2,0 -3,1 -5,1 -1,1 -2,1 -4,1 -1,1 -2,1 -3,1 -1,1 -2,1 -2,1 -2,1 -4,1 -7,2 -2,1 -4,1 -7,2 -2,1 -4,1 -6,2 -2,0 -4,0 -5,0 -2,0 -3,0 -4,-1 -1,0 -2,0 -3,-1 0,0 -1,-1 -2,-2 -1,0 -2,-1 -3,-2 -1,-1 -2,-2 -2,-3 0,-1 0,-3 0,-4 0,-1 0,-1 0,-2 0,-1 0,-2 1,-3 0,-1 0,-2 0,-3 1,-1 1,-2 1,-3l5 -10z"/>
    </g>
   </g>
  </g>
 </g>
</svg>
